<?xml version="1.0" encoding="UTF-8" standalone="no"?>
<!DOCTYPE svg PUBLIC "-//W3C//DTD SVG 1.1//EN"
 "http://www.w3.org/Graphics/SVG/1.1/DTD/svg11.dtd">
<!-- Generated by graphviz version 2.43.0 (0)
 -->
<!-- Title: Entity Relationship Diagram created by erdantic Pages: 1 -->
<svg width="1695pt" height="754pt"
 viewBox="0.00 0.00 1695.00 753.50" xmlns="http://www.w3.org/2000/svg" xmlns:xlink="http://www.w3.org/1999/xlink">
<g id="graph0" class="graph" transform="scale(1 1) rotate(0) translate(4 749.5)">
<title>Entity Relationship Diagram created by erdantic</title>
<polygon fill="white" stroke="transparent" points="-4,4 -4,-749.5 1691,-749.5 1691,4 -4,4"/>
<text text-anchor="middle" x="843.5" y="-6.8" font-family="Times New Roman,Times,Liberation Serif,serif" font-size="9.00" fill="#a8a8a8">Created by erdantic v1.2.1 &lt;https://github.com/drivendataorg/erdantic&gt;</text>
<!-- aind_behavior_services.common.Vector3 -->
<g id="node1" class="node">
<title>aind_behavior_services.common.Vector3</title>
<g id="a_node1"><a xlink:title="aind_behavior_services.common.Vector3&#10;&#10;Represents a 3D vector with float coordinates.&#10;">
<polygon fill="none" stroke="black" points="1635,-168.5 1635,-189.5 1687,-189.5 1687,-168.5 1635,-168.5"/>
<text text-anchor="start" x="1638" y="-176.3" font-family="Times New Roman,Times,Liberation Serif,serif" font-weight="bold" font-size="14.00">Vector3</text>
<polygon fill="none" stroke="black" points="1635,-147.5 1635,-168.5 1652,-168.5 1652,-147.5 1635,-147.5"/>
<text text-anchor="start" x="1640" y="-154.3" font-family="Times New Roman,Times,Liberation Serif,serif" font-size="14.00">x</text>
<polygon fill="none" stroke="black" points="1652,-147.5 1652,-168.5 1687,-168.5 1687,-147.5 1652,-147.5"/>
<text text-anchor="start" x="1657" y="-154.3" font-family="Times New Roman,Times,Liberation Serif,serif" font-size="14.00">float</text>
<polygon fill="none" stroke="black" points="1635,-126.5 1635,-147.5 1652,-147.5 1652,-126.5 1635,-126.5"/>
<text text-anchor="start" x="1640" y="-133.3" font-family="Times New Roman,Times,Liberation Serif,serif" font-size="14.00">y</text>
<polygon fill="none" stroke="black" points="1652,-126.5 1652,-147.5 1687,-147.5 1687,-126.5 1652,-126.5"/>
<text text-anchor="start" x="1657" y="-133.3" font-family="Times New Roman,Times,Liberation Serif,serif" font-size="14.00">float</text>
<polygon fill="none" stroke="black" points="1635,-105.5 1635,-126.5 1652,-126.5 1652,-105.5 1635,-105.5"/>
<text text-anchor="start" x="1640" y="-112.3" font-family="Times New Roman,Times,Liberation Serif,serif" font-size="14.00">z</text>
<polygon fill="none" stroke="black" points="1652,-105.5 1652,-126.5 1687,-126.5 1687,-105.5 1652,-105.5"/>
<text text-anchor="start" x="1657" y="-112.3" font-family="Times New Roman,Times,Liberation Serif,serif" font-size="14.00">float</text>
</a>
</g>
</g>
<!-- aind_behavior_vr_foraging.task_logic.AindVrForagingTaskLogic -->
<g id="node2" class="node">
<title>aind_behavior_vr_foraging.task_logic.AindVrForagingTaskLogic</title>
<g id="a_node2"><a xlink:title="aind_behavior_vr_foraging.task_logic.AindVrForagingTaskLogic&#10;&#10;Main task logic model for the AIND VR Foraging task.&#10;&#10;This is the top&#45;level class that encapsulates the complete task logic&#10;specification for the virtual reality foraging behavioral experiment.&#10;It includes all task parameters, environment specifications, and control settings.&#10;">
<polygon fill="none" stroke="black" points="0.5,-690.5 0.5,-711.5 277.5,-711.5 277.5,-690.5 0.5,-690.5"/>
<text text-anchor="start" x="60.5" y="-698.3" font-family="Times New Roman,Times,Liberation Serif,serif" font-weight="bold" font-size="14.00">AindVrForagingTaskLogic</text>
<polygon fill="none" stroke="black" points="0.5,-669.5 0.5,-690.5 95.5,-690.5 95.5,-669.5 0.5,-669.5"/>
<text text-anchor="start" x="32.5" y="-676.3" font-family="Times New Roman,Times,Liberation Serif,serif" font-size="14.00">name</text>
<polygon fill="none" stroke="black" points="95.5,-669.5 95.5,-690.5 277.5,-690.5 277.5,-669.5 95.5,-669.5"/>
<text text-anchor="start" x="117" y="-676.3" font-family="Times New Roman,Times,Liberation Serif,serif" font-size="14.00">Literal[&#39;AindVrForaging&#39;]</text>
<polygon fill="none" stroke="black" points="0.5,-648.5 0.5,-669.5 95.5,-669.5 95.5,-648.5 0.5,-648.5"/>
<text text-anchor="start" x="17.5" y="-655.3" font-family="Times New Roman,Times,Liberation Serif,serif" font-size="14.00">description</text>
<polygon fill="none" stroke="black" points="95.5,-648.5 95.5,-669.5 277.5,-669.5 277.5,-648.5 95.5,-648.5"/>
<text text-anchor="start" x="179.5" y="-655.3" font-family="Times New Roman,Times,Liberation Serif,serif" font-size="14.00">str</text>
<polygon fill="none" stroke="black" points="0.5,-627.5 0.5,-648.5 95.5,-648.5 95.5,-627.5 0.5,-627.5"/>
<text text-anchor="start" x="3.5" y="-634.3" font-family="Times New Roman,Times,Liberation Serif,serif" font-size="14.00">task_parameters</text>
<polygon fill="none" stroke="black" points="95.5,-627.5 95.5,-648.5 277.5,-648.5 277.5,-627.5 95.5,-627.5"/>
<text text-anchor="start" x="98.5" y="-634.3" font-family="Times New Roman,Times,Liberation Serif,serif" font-size="14.00">AindVrForagingTaskParameters</text>
<polygon fill="none" stroke="black" points="0.5,-606.5 0.5,-627.5 95.5,-627.5 95.5,-606.5 0.5,-606.5"/>
<text text-anchor="start" x="28" y="-613.3" font-family="Times New Roman,Times,Liberation Serif,serif" font-size="14.00">version</text>
<polygon fill="none" stroke="black" points="95.5,-606.5 95.5,-627.5 277.5,-627.5 277.5,-606.5 95.5,-606.5"/>
<text text-anchor="start" x="147.5" y="-613.3" font-family="Times New Roman,Times,Liberation Serif,serif" font-size="14.00">Literal[&#39;1.1.2&#39;]</text>
<polygon fill="none" stroke="black" points="0.5,-585.5 0.5,-606.5 95.5,-606.5 95.5,-585.5 0.5,-585.5"/>
<text text-anchor="start" x="15.5" y="-592.3" font-family="Times New Roman,Times,Liberation Serif,serif" font-size="14.00">stage_name</text>
<polygon fill="none" stroke="black" points="95.5,-585.5 95.5,-606.5 277.5,-606.5 277.5,-585.5 95.5,-585.5"/>
<text text-anchor="start" x="151.5" y="-592.3" font-family="Times New Roman,Times,Liberation Serif,serif" font-size="14.00">Optional[str]</text>
</a>
</g>
</g>
<!-- aind_behavior_vr_foraging.task_logic.AindVrForagingTaskParameters -->
<g id="node3" class="node">
<title>aind_behavior_vr_foraging.task_logic.AindVrForagingTaskParameters</title>
<g id="a_node3"><a xlink:title="aind_behavior_vr_foraging.task_logic.AindVrForagingTaskParameters&#10;&#10;Complete parameter specification for the AIND VR Foraging task.&#10;&#10;This class contains all configurable parameters for the VR foraging task,&#10;including environment structure, task mode settings, operation control,&#10;and numerical updaters for dynamic parameter modification.&#10;">
<polygon fill="none" stroke="black" points="385.5,-626.5 385.5,-647.5 816.5,-647.5 816.5,-626.5 385.5,-626.5"/>
<text text-anchor="start" x="505" y="-634.3" font-family="Times New Roman,Times,Liberation Serif,serif" font-weight="bold" font-size="14.00">AindVrForagingTaskParameters</text>
<polygon fill="none" stroke="black" points="385.5,-605.5 385.5,-626.5 593.5,-626.5 593.5,-605.5 385.5,-605.5"/>
<text text-anchor="start" x="465" y="-612.3" font-family="Times New Roman,Times,Liberation Serif,serif" font-size="14.00">rng_seed</text>
<polygon fill="none" stroke="black" points="593.5,-605.5 593.5,-626.5 816.5,-626.5 816.5,-605.5 593.5,-605.5"/>
<text text-anchor="start" x="664" y="-612.3" font-family="Times New Roman,Times,Liberation Serif,serif" font-size="14.00">Optional[float]</text>
<polygon fill="none" stroke="black" points="385.5,-584.5 385.5,-605.5 593.5,-605.5 593.5,-584.5 385.5,-584.5"/>
<text text-anchor="start" x="388.5" y="-591.3" font-family="Times New Roman,Times,Liberation Serif,serif" font-size="14.00">aind_behavior_services_pkg_version</text>
<polygon fill="none" stroke="black" points="593.5,-584.5 593.5,-605.5 816.5,-605.5 816.5,-584.5 593.5,-584.5"/>
<text text-anchor="start" x="662.5" y="-591.3" font-family="Times New Roman,Times,Liberation Serif,serif" font-size="14.00">Literal[&#39;0.13.7&#39;]</text>
<polygon fill="none" stroke="black" points="385.5,-563.5 385.5,-584.5 593.5,-584.5 593.5,-563.5 385.5,-563.5"/>
<text text-anchor="start" x="466.5" y="-570.3" font-family="Times New Roman,Times,Liberation Serif,serif" font-size="14.00">updaters</text>
<polygon fill="none" stroke="black" points="593.5,-563.5 593.5,-584.5 816.5,-584.5 816.5,-563.5 593.5,-563.5"/>
<text text-anchor="start" x="596.5" y="-570.3" font-family="Times New Roman,Times,Liberation Serif,serif" font-size="14.00">dict[UpdaterTarget, NumericalUpdater]</text>
<polygon fill="none" stroke="black" points="385.5,-542.5 385.5,-563.5 593.5,-563.5 593.5,-542.5 385.5,-542.5"/>
<text text-anchor="start" x="454.5" y="-549.3" font-family="Times New Roman,Times,Liberation Serif,serif" font-size="14.00">environment</text>
<polygon fill="none" stroke="black" points="593.5,-542.5 593.5,-563.5 816.5,-563.5 816.5,-542.5 593.5,-542.5"/>
<text text-anchor="start" x="664" y="-549.3" font-family="Times New Roman,Times,Liberation Serif,serif" font-size="14.00">BlockStructure</text>
<polygon fill="none" stroke="black" points="385.5,-521.5 385.5,-542.5 593.5,-542.5 593.5,-521.5 385.5,-521.5"/>
<text text-anchor="start" x="441" y="-528.3" font-family="Times New Roman,Times,Liberation Serif,serif" font-size="14.00">operation_control</text>
<polygon fill="none" stroke="black" points="593.5,-521.5 593.5,-542.5 816.5,-542.5 816.5,-521.5 593.5,-521.5"/>
<text text-anchor="start" x="657" y="-528.3" font-family="Times New Roman,Times,Liberation Serif,serif" font-size="14.00">OperationControl</text>
</a>
</g>
</g>
<!-- aind_behavior_vr_foraging.task_logic.AindVrForagingTaskLogic&#45;&gt;aind_behavior_vr_foraging.task_logic.AindVrForagingTaskParameters -->
<g id="edge1" class="edge">
<title>aind_behavior_vr_foraging.task_logic.AindVrForagingTaskLogic:e&#45;&gt;aind_behavior_vr_foraging.task_logic.AindVrForagingTaskParameters:w</title>
<path fill="none" stroke="black" d="M287.12,-637.5C322,-637.5 336.76,-637.5 369.67,-637.5"/>
<polyline fill="none" stroke="black" points="277,-637.5 282,-637.5 "/>
<polyline fill="none" stroke="black" points="282,-637.5 287,-637.5 "/>
<polyline fill="none" stroke="black" points="385,-637.5 380,-637.5 "/>
<polygon fill="black" stroke="black" points="379,-632.5 379,-642.5 377,-642.5 377,-632.5 379,-632.5"/>
<polyline fill="none" stroke="black" points="380,-637.5 375,-637.5 "/>
<polygon fill="black" stroke="black" points="374,-632.5 374,-642.5 372,-642.5 372,-632.5 374,-632.5"/>
<polyline fill="none" stroke="black" points="375,-637.5 370,-637.5 "/>
</g>
<!-- aind_behavior_vr_foraging.task_logic.BlockStructure -->
<g id="node4" class="node">
<title>aind_behavior_vr_foraging.task_logic.BlockStructure</title>
<g id="a_node4"><a xlink:title="aind_behavior_vr_foraging.task_logic.BlockStructure&#10;&#10;Structure defining the sequence and sampling of experimental blocks.&#10;&#10;This class manages multiple experimental blocks and determines how they&#10;are presented during the experiment (sequentially or randomly).&#10;">
<polygon fill="none" stroke="black" points="924,-541.5 924,-562.5 1190,-562.5 1190,-541.5 924,-541.5"/>
<text text-anchor="start" x="1012.5" y="-549.3" font-family="Times New Roman,Times,Liberation Serif,serif" font-weight="bold" font-size="14.00">BlockStructure</text>
<polygon fill="none" stroke="black" points="924,-520.5 924,-541.5 1018,-541.5 1018,-520.5 924,-520.5"/>
<text text-anchor="start" x="953" y="-527.3" font-family="Times New Roman,Times,Liberation Serif,serif" font-size="14.00">blocks</text>
<polygon fill="none" stroke="black" points="1018,-520.5 1018,-541.5 1190,-541.5 1190,-520.5 1018,-520.5"/>
<text text-anchor="start" x="1075" y="-527.3" font-family="Times New Roman,Times,Liberation Serif,serif" font-size="14.00">list[Block]</text>
<polygon fill="none" stroke="black" points="924,-499.5 924,-520.5 1018,-520.5 1018,-499.5 924,-499.5"/>
<text text-anchor="start" x="927" y="-506.3" font-family="Times New Roman,Times,Liberation Serif,serif" font-size="14.00">sampling_mode</text>
<polygon fill="none" stroke="black" points="1018,-499.5 1018,-520.5 1190,-520.5 1190,-499.5 1018,-499.5"/>
<text text-anchor="start" x="1021" y="-506.3" font-family="Times New Roman,Times,Liberation Serif,serif" font-size="14.00">Literal[&#39;Random&#39;, &#39;Sequential&#39;]</text>
</a>
</g>
</g>
<!-- aind_behavior_vr_foraging.task_logic.AindVrForagingTaskParameters&#45;&gt;aind_behavior_vr_foraging.task_logic.BlockStructure -->
<g id="edge2" class="edge">
<title>aind_behavior_vr_foraging.task_logic.AindVrForagingTaskParameters:e&#45;&gt;aind_behavior_vr_foraging.task_logic.BlockStructure:w</title>
<path fill="none" stroke="black" d="M826.12,-552.5C861,-552.5 875.76,-552.5 908.67,-552.5"/>
<polyline fill="none" stroke="black" points="816,-552.5 821,-552.5 "/>
<polyline fill="none" stroke="black" points="821,-552.5 826,-552.5 "/>
<polyline fill="none" stroke="black" points="924,-552.5 919,-552.5 "/>
<polygon fill="black" stroke="black" points="918,-547.5 918,-557.5 916,-557.5 916,-547.5 918,-547.5"/>
<polyline fill="none" stroke="black" points="919,-552.5 914,-552.5 "/>
<polygon fill="black" stroke="black" points="913,-547.5 913,-557.5 911,-557.5 911,-547.5 913,-547.5"/>
<polyline fill="none" stroke="black" points="914,-552.5 909,-552.5 "/>
</g>
<!-- aind_behavior_vr_foraging.task_logic.NumericalUpdater -->
<g id="node5" class="node">
<title>aind_behavior_vr_foraging.task_logic.NumericalUpdater</title>
<g id="a_node5"><a xlink:title="aind_behavior_vr_foraging.task_logic.NumericalUpdater&#10;&#10;A numerical updater that modifies task parameters during execution.&#10;&#10;This class combines an operation type with parameters to define how values&#10;should be updated dynamically during the task, enabling adaptive behavior&#10;based on animal performance or other criteria.&#10;">
<polygon fill="none" stroke="black" points="939,-703.5 939,-724.5 1175,-724.5 1175,-703.5 939,-703.5"/>
<text text-anchor="start" x="1002" y="-711.3" font-family="Times New Roman,Times,Liberation Serif,serif" font-weight="bold" font-size="14.00">NumericalUpdater</text>
<polygon fill="none" stroke="black" points="939,-682.5 939,-703.5 1006,-703.5 1006,-682.5 939,-682.5"/>
<text text-anchor="start" x="946.5" y="-689.3" font-family="Times New Roman,Times,Liberation Serif,serif" font-size="14.00">operation</text>
<polygon fill="none" stroke="black" points="1006,-682.5 1006,-703.5 1175,-703.5 1175,-682.5 1006,-682.5"/>
<text text-anchor="start" x="1012.5" y="-689.3" font-family="Times New Roman,Times,Liberation Serif,serif" font-size="14.00">NumericalUpdaterOperation</text>
<polygon fill="none" stroke="black" points="939,-661.5 939,-682.5 1006,-682.5 1006,-661.5 939,-661.5"/>
<text text-anchor="start" x="942" y="-668.3" font-family="Times New Roman,Times,Liberation Serif,serif" font-size="14.00">parameters</text>
<polygon fill="none" stroke="black" points="1006,-661.5 1006,-682.5 1175,-682.5 1175,-661.5 1006,-661.5"/>
<text text-anchor="start" x="1009" y="-668.3" font-family="Times New Roman,Times,Liberation Serif,serif" font-size="14.00">NumericalUpdaterParameters</text>
</a>
</g>
</g>
<!-- aind_behavior_vr_foraging.task_logic.AindVrForagingTaskParameters&#45;&gt;aind_behavior_vr_foraging.task_logic.NumericalUpdater -->
<g id="edge3" class="edge">
<title>aind_behavior_vr_foraging.task_logic.AindVrForagingTaskParameters:e&#45;&gt;aind_behavior_vr_foraging.task_logic.NumericalUpdater:w</title>
<path fill="none" stroke="black" d="M826,-574.26C890.47,-584.58 863.32,-696.92 922.91,-712.67"/>
<polyline fill="none" stroke="black" points="816,-573.5 820.99,-573.88 "/>
<polyline fill="none" stroke="black" points="820.99,-573.88 825.97,-574.26 "/>
<polygon fill="black" stroke="black" points="928.07,-713.3 937.46,-718.97 933.04,-713.9 938,-714.5 938,-714.5 938,-714.5 933.04,-713.9 938.54,-710.03 928.07,-713.3 928.07,-713.3"/>
<polyline fill="none" stroke="black" points="928.07,-713.3 923.11,-712.69 "/>
</g>
<!-- aind_behavior_vr_foraging.task_logic.OperationControl -->
<g id="node6" class="node">
<title>aind_behavior_vr_foraging.task_logic.OperationControl</title>
<g id="a_node6"><a xlink:title="aind_behavior_vr_foraging.task_logic.OperationControl&#10;&#10;Master control class for all operational hardware systems.&#10;&#10;This class aggregates all the hardware control specifications including&#10;movable spout, odor delivery, position tracking, and audio systems.&#10;It provides a centralized configuration point for all task hardware.&#10;">
<polygon fill="none" stroke="black" points="925,-341.5 925,-362.5 1189,-362.5 1189,-341.5 925,-341.5"/>
<text text-anchor="start" x="1004" y="-349.3" font-family="Times New Roman,Times,Liberation Serif,serif" font-weight="bold" font-size="14.00">OperationControl</text>
<polygon fill="none" stroke="black" points="925,-320.5 925,-341.5 1061,-341.5 1061,-320.5 925,-320.5"/>
<text text-anchor="start" x="928.5" y="-327.3" font-family="Times New Roman,Times,Liberation Serif,serif" font-size="14.00">movable_spout_control</text>
<polygon fill="none" stroke="black" points="1061,-320.5 1061,-341.5 1189,-341.5 1189,-320.5 1061,-320.5"/>
<text text-anchor="start" x="1064" y="-327.3" font-family="Times New Roman,Times,Liberation Serif,serif" font-size="14.00">MovableSpoutControl</text>
<polygon fill="none" stroke="black" points="925,-299.5 925,-320.5 1061,-320.5 1061,-299.5 925,-299.5"/>
<text text-anchor="start" x="958" y="-306.3" font-family="Times New Roman,Times,Liberation Serif,serif" font-size="14.00">odor_control</text>
<polygon fill="none" stroke="black" points="1061,-299.5 1061,-320.5 1189,-320.5 1189,-299.5 1061,-299.5"/>
<text text-anchor="start" x="1090" y="-306.3" font-family="Times New Roman,Times,Liberation Serif,serif" font-size="14.00">OdorControl</text>
<polygon fill="none" stroke="black" points="925,-278.5 925,-299.5 1061,-299.5 1061,-278.5 925,-278.5"/>
<text text-anchor="start" x="948.5" y="-285.3" font-family="Times New Roman,Times,Liberation Serif,serif" font-size="14.00">position_control</text>
<polygon fill="none" stroke="black" points="1061,-278.5 1061,-299.5 1189,-299.5 1189,-278.5 1061,-278.5"/>
<text text-anchor="start" x="1082" y="-285.3" font-family="Times New Roman,Times,Liberation Serif,serif" font-size="14.00">PositionControl</text>
<polygon fill="none" stroke="black" points="925,-257.5 925,-278.5 1061,-278.5 1061,-257.5 925,-257.5"/>
<text text-anchor="start" x="955" y="-264.3" font-family="Times New Roman,Times,Liberation Serif,serif" font-size="14.00">audio_control</text>
<polygon fill="none" stroke="black" points="1061,-257.5 1061,-278.5 1189,-278.5 1189,-257.5 1061,-257.5"/>
<text text-anchor="start" x="1087" y="-264.3" font-family="Times New Roman,Times,Liberation Serif,serif" font-size="14.00">AudioControl</text>
<polygon fill="none" stroke="black" points="925,-236.5 925,-257.5 1061,-257.5 1061,-236.5 925,-236.5"/>
<text text-anchor="start" x="931.5" y="-243.3" font-family="Times New Roman,Times,Liberation Serif,serif" font-size="14.00">wait_to_start_duration</text>
<polygon fill="none" stroke="black" points="1061,-236.5 1061,-257.5 1189,-257.5 1189,-236.5 1061,-236.5"/>
<text text-anchor="start" x="1112.5" y="-243.3" font-family="Times New Roman,Times,Liberation Serif,serif" font-size="14.00">float</text>
<polygon fill="none" stroke="black" points="925,-215.5 925,-236.5 1061,-236.5 1061,-215.5 925,-215.5"/>
<text text-anchor="start" x="928" y="-222.3" font-family="Times New Roman,Times,Liberation Serif,serif" font-size="14.00">wait_to_finish_duration</text>
<polygon fill="none" stroke="black" points="1061,-215.5 1061,-236.5 1189,-236.5 1189,-215.5 1061,-215.5"/>
<text text-anchor="start" x="1112.5" y="-222.3" font-family="Times New Roman,Times,Liberation Serif,serif" font-size="14.00">float</text>
</a>
</g>
</g>
<!-- aind_behavior_vr_foraging.task_logic.AindVrForagingTaskParameters&#45;&gt;aind_behavior_vr_foraging.task_logic.OperationControl -->
<g id="edge4" class="edge">
<title>aind_behavior_vr_foraging.task_logic.AindVrForagingTaskParameters:e&#45;&gt;aind_behavior_vr_foraging.task_logic.OperationControl:w</title>
<path fill="none" stroke="black" d="M826.13,-530.7C898.28,-518.6 842.69,-372.57 909.03,-354.36"/>
<polyline fill="none" stroke="black" points="816,-531.5 820.98,-531.11 "/>
<polyline fill="none" stroke="black" points="820.98,-531.11 825.97,-530.71 "/>
<polyline fill="none" stroke="black" points="924,-352.5 919.04,-353.12 "/>
<polygon fill="black" stroke="black" points="917.43,-348.28 918.66,-358.2 916.68,-358.45 915.44,-348.52 917.43,-348.28"/>
<polyline fill="none" stroke="black" points="919.04,-353.12 914.08,-353.73 "/>
<polygon fill="black" stroke="black" points="912.47,-348.89 913.7,-358.82 911.72,-359.06 910.48,-349.14 912.47,-348.89"/>
<polyline fill="none" stroke="black" points="914.08,-353.73 909.11,-354.35 "/>
</g>
<!-- aind_behavior_vr_foraging.task_logic.Block -->
<g id="node8" class="node">
<title>aind_behavior_vr_foraging.task_logic.Block</title>
<g id="a_node8"><a xlink:title="aind_behavior_vr_foraging.task_logic.Block&#10;&#10;Configuration for a single experimental block.&#10;&#10;A block represents a period of the experiment with specific environment&#10;statistics and ending conditions. Each block defines the environmental&#10;parameters and termination criteria for that experimental phase.&#10;">
<polygon fill="none" stroke="black" points="1298.5,-519.5 1298.5,-540.5 1527.5,-540.5 1527.5,-519.5 1298.5,-519.5"/>
<text text-anchor="start" x="1396" y="-527.3" font-family="Times New Roman,Times,Liberation Serif,serif" font-weight="bold" font-size="14.00">Block</text>
<polygon fill="none" stroke="black" points="1298.5,-498.5 1298.5,-519.5 1387.5,-519.5 1387.5,-498.5 1298.5,-498.5"/>
<text text-anchor="start" x="1308" y="-505.3" font-family="Times New Roman,Times,Liberation Serif,serif" font-size="14.00">environment</text>
<polygon fill="none" stroke="black" points="1387.5,-498.5 1387.5,-519.5 1527.5,-519.5 1527.5,-498.5 1387.5,-498.5"/>
<text text-anchor="start" x="1421.5" y="-505.3" font-family="Times New Roman,Times,Liberation Serif,serif" font-size="14.00">Environment</text>
<polygon fill="none" stroke="black" points="1298.5,-477.5 1298.5,-498.5 1387.5,-498.5 1387.5,-477.5 1298.5,-477.5"/>
<text text-anchor="start" x="1301.5" y="-484.3" font-family="Times New Roman,Times,Liberation Serif,serif" font-size="14.00">end_conditions</text>
<polygon fill="none" stroke="black" points="1387.5,-477.5 1387.5,-498.5 1527.5,-498.5 1527.5,-477.5 1387.5,-477.5"/>
<text text-anchor="start" x="1390.5" y="-484.3" font-family="Times New Roman,Times,Liberation Serif,serif" font-size="14.00">list[BlockEndCondition]</text>
</a>
</g>
</g>
<!-- aind_behavior_vr_foraging.task_logic.BlockStructure&#45;&gt;aind_behavior_vr_foraging.task_logic.Block -->
<g id="edge5" class="edge">
<title>aind_behavior_vr_foraging.task_logic.BlockStructure:e&#45;&gt;aind_behavior_vr_foraging.task_logic.Block:w</title>
<path fill="none" stroke="black" d="M1200.12,-530.5C1235,-530.5 1249.76,-530.5 1282.67,-530.5"/>
<polyline fill="none" stroke="black" points="1190,-530.5 1195,-530.5 "/>
<polyline fill="none" stroke="black" points="1195,-530.5 1200,-530.5 "/>
<polygon fill="black" stroke="black" points="1288,-530.5 1298,-535 1293,-530.5 1298,-530.5 1298,-530.5 1298,-530.5 1293,-530.5 1298,-526 1288,-530.5 1288,-530.5"/>
<polyline fill="none" stroke="black" points="1288,-530.5 1283,-530.5 "/>
</g>
<!-- aind_behavior_vr_foraging.task_logic.NumericalUpdaterParameters -->
<g id="node10" class="node">
<title>aind_behavior_vr_foraging.task_logic.NumericalUpdaterParameters</title>
<g id="a_node10"><a xlink:title="aind_behavior_vr_foraging.task_logic.NumericalUpdaterParameters&#10;&#10;Parameters that control how numerical updates are applied to task values.&#10;&#10;These parameters define the bounds and increments for updating numerical values&#10;during task execution, ensuring values stay within acceptable ranges.&#10;">
<polygon fill="none" stroke="black" points="1320.5,-724.5 1320.5,-745.5 1504.5,-745.5 1504.5,-724.5 1320.5,-724.5"/>
<text text-anchor="start" x="1323.5" y="-732.3" font-family="Times New Roman,Times,Liberation Serif,serif" font-weight="bold" font-size="14.00">NumericalUpdaterParameters</text>
<polygon fill="none" stroke="black" points="1320.5,-703.5 1320.5,-724.5 1433.5,-724.5 1433.5,-703.5 1320.5,-703.5"/>
<text text-anchor="start" x="1343" y="-710.3" font-family="Times New Roman,Times,Liberation Serif,serif" font-size="14.00">initial_value</text>
<polygon fill="none" stroke="black" points="1433.5,-703.5 1433.5,-724.5 1504.5,-724.5 1504.5,-703.5 1433.5,-703.5"/>
<text text-anchor="start" x="1456.5" y="-710.3" font-family="Times New Roman,Times,Liberation Serif,serif" font-size="14.00">float</text>
<polygon fill="none" stroke="black" points="1320.5,-682.5 1320.5,-703.5 1433.5,-703.5 1433.5,-682.5 1320.5,-682.5"/>
<text text-anchor="start" x="1346.5" y="-689.3" font-family="Times New Roman,Times,Liberation Serif,serif" font-size="14.00">on_success</text>
<polygon fill="none" stroke="black" points="1433.5,-682.5 1433.5,-703.5 1504.5,-703.5 1504.5,-682.5 1433.5,-682.5"/>
<text text-anchor="start" x="1456.5" y="-689.3" font-family="Times New Roman,Times,Liberation Serif,serif" font-size="14.00">float</text>
<polygon fill="none" stroke="black" points="1320.5,-661.5 1320.5,-682.5 1433.5,-682.5 1433.5,-661.5 1320.5,-661.5"/>
<text text-anchor="start" x="1349" y="-668.3" font-family="Times New Roman,Times,Liberation Serif,serif" font-size="14.00">on_failure</text>
<polygon fill="none" stroke="black" points="1433.5,-661.5 1433.5,-682.5 1504.5,-682.5 1504.5,-661.5 1433.5,-661.5"/>
<text text-anchor="start" x="1456.5" y="-668.3" font-family="Times New Roman,Times,Liberation Serif,serif" font-size="14.00">float</text>
<polygon fill="none" stroke="black" points="1320.5,-640.5 1320.5,-661.5 1433.5,-661.5 1433.5,-640.5 1320.5,-640.5"/>
<text text-anchor="start" x="1349.5" y="-647.3" font-family="Times New Roman,Times,Liberation Serif,serif" font-size="14.00">increment</text>
<polygon fill="none" stroke="black" points="1433.5,-640.5 1433.5,-661.5 1504.5,-661.5 1504.5,-640.5 1433.5,-640.5"/>
<text text-anchor="start" x="1456.5" y="-647.3" font-family="Times New Roman,Times,Liberation Serif,serif" font-size="14.00">float</text>
<polygon fill="none" stroke="black" points="1320.5,-619.5 1320.5,-640.5 1433.5,-640.5 1433.5,-619.5 1320.5,-619.5"/>
<text text-anchor="start" x="1348" y="-626.3" font-family="Times New Roman,Times,Liberation Serif,serif" font-size="14.00">decrement</text>
<polygon fill="none" stroke="black" points="1433.5,-619.5 1433.5,-640.5 1504.5,-640.5 1504.5,-619.5 1433.5,-619.5"/>
<text text-anchor="start" x="1456.5" y="-626.3" font-family="Times New Roman,Times,Liberation Serif,serif" font-size="14.00">float</text>
<polygon fill="none" stroke="black" points="1320.5,-598.5 1320.5,-619.5 1433.5,-619.5 1433.5,-598.5 1320.5,-598.5"/>
<text text-anchor="start" x="1349.5" y="-605.3" font-family="Times New Roman,Times,Liberation Serif,serif" font-size="14.00">minimum</text>
<polygon fill="none" stroke="black" points="1433.5,-598.5 1433.5,-619.5 1504.5,-619.5 1504.5,-598.5 1433.5,-598.5"/>
<text text-anchor="start" x="1456.5" y="-605.3" font-family="Times New Roman,Times,Liberation Serif,serif" font-size="14.00">float</text>
<polygon fill="none" stroke="black" points="1320.5,-577.5 1320.5,-598.5 1433.5,-598.5 1433.5,-577.5 1320.5,-577.5"/>
<text text-anchor="start" x="1348" y="-584.3" font-family="Times New Roman,Times,Liberation Serif,serif" font-size="14.00">maximum</text>
<polygon fill="none" stroke="black" points="1433.5,-577.5 1433.5,-598.5 1504.5,-598.5 1504.5,-577.5 1433.5,-577.5"/>
<text text-anchor="start" x="1456.5" y="-584.3" font-family="Times New Roman,Times,Liberation Serif,serif" font-size="14.00">float</text>
</a>
</g>
</g>
<!-- aind_behavior_vr_foraging.task_logic.NumericalUpdater&#45;&gt;aind_behavior_vr_foraging.task_logic.NumericalUpdaterParameters -->
<g id="edge6" class="edge">
<title>aind_behavior_vr_foraging.task_logic.NumericalUpdater:e&#45;&gt;aind_behavior_vr_foraging.task_logic.NumericalUpdaterParameters:w</title>
<path fill="none" stroke="black" d="M1186.15,-671.98C1241.45,-677.35 1251.73,-726.39 1304.33,-734.4"/>
<polyline fill="none" stroke="black" points="1176,-671.5 1180.99,-671.74 "/>
<polyline fill="none" stroke="black" points="1180.99,-671.74 1185.99,-671.97 "/>
<polyline fill="none" stroke="black" points="1319.5,-735.5 1314.51,-735.14 "/>
<polygon fill="black" stroke="black" points="1313.88,-730.08 1313.15,-740.05 1311.16,-739.91 1311.88,-729.93 1313.88,-730.08"/>
<polyline fill="none" stroke="black" points="1314.51,-735.14 1309.53,-734.77 "/>
<polygon fill="black" stroke="black" points="1308.89,-729.72 1308.17,-739.69 1306.17,-739.54 1306.9,-729.57 1308.89,-729.72"/>
<polyline fill="none" stroke="black" points="1309.53,-734.77 1304.54,-734.41 "/>
</g>
<!-- aind_behavior_vr_foraging.task_logic.AudioControl -->
<g id="node7" class="node">
<title>aind_behavior_vr_foraging.task_logic.AudioControl</title>
<g id="a_node7"><a xlink:title="aind_behavior_vr_foraging.task_logic.AudioControl&#10;&#10;Controls audio feedback parameters for the task.&#10;&#10;This class manages audio cue generation including tone duration and frequency&#10;for auditory feedback during the behavioral task.&#10;">
<polygon fill="none" stroke="black" points="1366.5,-59.5 1366.5,-80.5 1458.5,-80.5 1458.5,-59.5 1366.5,-59.5"/>
<text text-anchor="start" x="1372" y="-67.3" font-family="Times New Roman,Times,Liberation Serif,serif" font-weight="bold" font-size="14.00">AudioControl</text>
<polygon fill="none" stroke="black" points="1366.5,-38.5 1366.5,-59.5 1427.5,-59.5 1427.5,-38.5 1366.5,-38.5"/>
<text text-anchor="start" x="1374" y="-45.3" font-family="Times New Roman,Times,Liberation Serif,serif" font-size="14.00">duration</text>
<polygon fill="none" stroke="black" points="1427.5,-38.5 1427.5,-59.5 1458.5,-59.5 1458.5,-38.5 1427.5,-38.5"/>
<text text-anchor="start" x="1430.5" y="-45.3" font-family="Times New Roman,Times,Liberation Serif,serif" font-size="14.00">float</text>
<polygon fill="none" stroke="black" points="1366.5,-17.5 1366.5,-38.5 1427.5,-38.5 1427.5,-17.5 1366.5,-17.5"/>
<text text-anchor="start" x="1369.5" y="-24.3" font-family="Times New Roman,Times,Liberation Serif,serif" font-size="14.00">frequency</text>
<polygon fill="none" stroke="black" points="1427.5,-17.5 1427.5,-38.5 1458.5,-38.5 1458.5,-17.5 1427.5,-17.5"/>
<text text-anchor="start" x="1430.5" y="-24.3" font-family="Times New Roman,Times,Liberation Serif,serif" font-size="14.00">float</text>
</a>
</g>
</g>
<!-- aind_behavior_vr_foraging.task_logic.OperationControl&#45;&gt;aind_behavior_vr_foraging.task_logic.AudioControl -->
<g id="edge7" class="edge">
<title>aind_behavior_vr_foraging.task_logic.OperationControl:e&#45;&gt;aind_behavior_vr_foraging.task_logic.AudioControl:w</title>
<path fill="none" stroke="black" d="M1200.29,-266.95C1275.28,-258.43 1232.49,-153.42 1298,-98.5 1318.51,-81.3 1329,-73.43 1350.24,-71.2"/>
<polyline fill="none" stroke="black" points="1190,-267.5 1194.99,-267.23 "/>
<polyline fill="none" stroke="black" points="1194.99,-267.23 1199.99,-266.96 "/>
<polyline fill="none" stroke="black" points="1365.5,-70.5 1360.51,-70.73 "/>
<polygon fill="black" stroke="black" points="1359.28,-65.78 1359.73,-75.77 1357.74,-75.86 1357.28,-65.87 1359.28,-65.78"/>
<polyline fill="none" stroke="black" points="1360.51,-70.73 1355.51,-70.96 "/>
<polygon fill="black" stroke="black" points="1354.28,-66.01 1354.74,-76 1352.74,-76.09 1352.29,-66.1 1354.28,-66.01"/>
<polyline fill="none" stroke="black" points="1355.51,-70.96 1350.52,-71.18 "/>
</g>
<!-- aind_behavior_vr_foraging.task_logic.MovableSpoutControl -->
<g id="node9" class="node">
<title>aind_behavior_vr_foraging.task_logic.MovableSpoutControl</title>
<g id="a_node9"><a xlink:title="aind_behavior_vr_foraging.task_logic.MovableSpoutControl&#10;&#10;Controls the movable water spout behavior for reward delivery.&#10;&#10;This class configures how the movable spout operates, including when it&#39;s&#10;enabled, timing for reward collection, and retraction distance for operant&#10;conditioning protocols.&#10;">
<polygon fill="none" stroke="black" points="1313.5,-420.5 1313.5,-441.5 1511.5,-441.5 1511.5,-420.5 1313.5,-420.5"/>
<text text-anchor="start" x="1347.5" y="-428.3" font-family="Times New Roman,Times,Liberation Serif,serif" font-weight="bold" font-size="14.00">MovableSpoutControl</text>
<polygon fill="none" stroke="black" points="1313.5,-399.5 1313.5,-420.5 1480.5,-420.5 1480.5,-399.5 1313.5,-399.5"/>
<text text-anchor="start" x="1375.5" y="-406.3" font-family="Times New Roman,Times,Liberation Serif,serif" font-size="14.00">enabled</text>
<polygon fill="none" stroke="black" points="1480.5,-399.5 1480.5,-420.5 1511.5,-420.5 1511.5,-399.5 1480.5,-399.5"/>
<text text-anchor="start" x="1483.5" y="-406.3" font-family="Times New Roman,Times,Liberation Serif,serif" font-size="14.00">bool</text>
<polygon fill="none" stroke="black" points="1313.5,-378.5 1313.5,-399.5 1480.5,-399.5 1480.5,-378.5 1313.5,-378.5"/>
<text text-anchor="start" x="1316.5" y="-385.3" font-family="Times New Roman,Times,Liberation Serif,serif" font-size="14.00">time_to_collect_after_reward</text>
<polygon fill="none" stroke="black" points="1480.5,-378.5 1480.5,-399.5 1511.5,-399.5 1511.5,-378.5 1480.5,-378.5"/>
<text text-anchor="start" x="1483.5" y="-385.3" font-family="Times New Roman,Times,Liberation Serif,serif" font-size="14.00">float</text>
<polygon fill="none" stroke="black" points="1313.5,-357.5 1313.5,-378.5 1480.5,-378.5 1480.5,-357.5 1313.5,-357.5"/>
<text text-anchor="start" x="1345.5" y="-364.3" font-family="Times New Roman,Times,Liberation Serif,serif" font-size="14.00">retracting_distance</text>
<polygon fill="none" stroke="black" points="1480.5,-357.5 1480.5,-378.5 1511.5,-378.5 1511.5,-357.5 1480.5,-357.5"/>
<text text-anchor="start" x="1483.5" y="-364.3" font-family="Times New Roman,Times,Liberation Serif,serif" font-size="14.00">float</text>
</a>
</g>
</g>
<!-- aind_behavior_vr_foraging.task_logic.OperationControl&#45;&gt;aind_behavior_vr_foraging.task_logic.MovableSpoutControl -->
<g id="edge8" class="edge">
<title>aind_behavior_vr_foraging.task_logic.OperationControl:e&#45;&gt;aind_behavior_vr_foraging.task_logic.MovableSpoutControl:w</title>
<path fill="none" stroke="black" d="M1200.05,-332.25C1253.75,-340.63 1247.45,-416.94 1297.29,-429.69"/>
<polyline fill="none" stroke="black" points="1190,-331.5 1194.99,-331.87 "/>
<polyline fill="none" stroke="black" points="1194.99,-331.87 1199.97,-332.24 "/>
<polyline fill="none" stroke="black" points="1312.5,-431.5 1307.53,-430.91 "/>
<polygon fill="black" stroke="black" points="1307.13,-425.83 1305.95,-435.76 1303.97,-435.52 1305.14,-425.59 1307.13,-425.83"/>
<polyline fill="none" stroke="black" points="1307.53,-430.91 1302.57,-430.32 "/>
<polygon fill="black" stroke="black" points="1302.17,-425.24 1300.99,-435.17 1299,-434.93 1300.18,-425 1302.17,-425.24"/>
<polyline fill="none" stroke="black" points="1302.57,-430.32 1297.6,-429.73 "/>
</g>
<!-- aind_behavior_vr_foraging.task_logic.OdorControl -->
<g id="node11" class="node">
<title>aind_behavior_vr_foraging.task_logic.OdorControl</title>
<g id="a_node11"><a xlink:title="aind_behavior_vr_foraging.task_logic.OdorControl&#10;&#10;Controls the odor delivery system parameters.&#10;&#10;This class manages the olfactory stimulus delivery system, including flow rates,&#10;valve timing, and carrier gas configuration. It ensures proper odor concentration&#10;and delivery timing for the behavioral task.&#10;">
<polygon fill="none" stroke="black" points="1352.5,-299.5 1352.5,-320.5 1473.5,-320.5 1473.5,-299.5 1352.5,-299.5"/>
<text text-anchor="start" x="1374.5" y="-307.3" font-family="Times New Roman,Times,Liberation Serif,serif" font-weight="bold" font-size="14.00">OdorControl</text>
<polygon fill="none" stroke="black" points="1352.5,-278.5 1352.5,-299.5 1452.5,-299.5 1452.5,-278.5 1352.5,-278.5"/>
<text text-anchor="start" x="1355.5" y="-285.3" font-family="Times New Roman,Times,Liberation Serif,serif" font-size="14.00">target_total_flow</text>
<polygon fill="none" stroke="black" points="1452.5,-278.5 1452.5,-299.5 1473.5,-299.5 1473.5,-278.5 1452.5,-278.5"/>
<text text-anchor="start" x="1455.5" y="-285.3" font-family="Times New Roman,Times,Liberation Serif,serif" font-size="14.00">int</text>
<polygon fill="none" stroke="black" points="1352.5,-257.5 1352.5,-278.5 1452.5,-278.5 1452.5,-257.5 1352.5,-257.5"/>
<text text-anchor="start" x="1355.5" y="-264.3" font-family="Times New Roman,Times,Liberation Serif,serif" font-size="14.00">target_odor_flow</text>
<polygon fill="none" stroke="black" points="1452.5,-257.5 1452.5,-278.5 1473.5,-278.5 1473.5,-257.5 1452.5,-257.5"/>
<text text-anchor="start" x="1455.5" y="-264.3" font-family="Times New Roman,Times,Liberation Serif,serif" font-size="14.00">int</text>
</a>
</g>
</g>
<!-- aind_behavior_vr_foraging.task_logic.OperationControl&#45;&gt;aind_behavior_vr_foraging.task_logic.OdorControl -->
<g id="edge9" class="edge">
<title>aind_behavior_vr_foraging.task_logic.OperationControl:e&#45;&gt;aind_behavior_vr_foraging.task_logic.OdorControl:w</title>
<path fill="none" stroke="black" d="M1200.14,-310.5C1258.7,-310.5 1279.9,-310.5 1336.35,-310.5"/>
<polyline fill="none" stroke="black" points="1190,-310.5 1195,-310.5 "/>
<polyline fill="none" stroke="black" points="1195,-310.5 1200,-310.5 "/>
<polyline fill="none" stroke="black" points="1351.5,-310.5 1346.5,-310.5 "/>
<polygon fill="black" stroke="black" points="1345.5,-305.5 1345.5,-315.5 1343.5,-315.5 1343.5,-305.5 1345.5,-305.5"/>
<polyline fill="none" stroke="black" points="1346.5,-310.5 1341.5,-310.5 "/>
<polygon fill="black" stroke="black" points="1340.5,-305.5 1340.5,-315.5 1338.5,-315.5 1338.5,-305.5 1340.5,-305.5"/>
<polyline fill="none" stroke="black" points="1341.5,-310.5 1336.5,-310.5 "/>
</g>
<!-- aind_behavior_vr_foraging.task_logic.PositionControl -->
<g id="node12" class="node">
<title>aind_behavior_vr_foraging.task_logic.PositionControl</title>
<g id="a_node12"><a xlink:title="aind_behavior_vr_foraging.task_logic.PositionControl&#10;&#10;Controls the position tracking and movement detection parameters.&#10;&#10;This class manages the position control system including coordinate transformations,&#10;initial positioning, signal filtering, and movement detection thresholds for the&#10;virtual reality foraging task.&#10;">
<polygon fill="none" stroke="black" points="1321.5,-200.5 1321.5,-221.5 1503.5,-221.5 1503.5,-200.5 1321.5,-200.5"/>
<text text-anchor="start" x="1366.5" y="-208.3" font-family="Times New Roman,Times,Liberation Serif,serif" font-weight="bold" font-size="14.00">PositionControl</text>
<polygon fill="none" stroke="black" points="1321.5,-179.5 1321.5,-200.5 1454.5,-200.5 1454.5,-179.5 1321.5,-179.5"/>
<text text-anchor="start" x="1376" y="-186.3" font-family="Times New Roman,Times,Liberation Serif,serif" font-size="14.00">gain</text>
<polygon fill="none" stroke="black" points="1454.5,-179.5 1454.5,-200.5 1503.5,-200.5 1503.5,-179.5 1454.5,-179.5"/>
<text text-anchor="start" x="1457.5" y="-186.3" font-family="Times New Roman,Times,Liberation Serif,serif" font-size="14.00">Vector3</text>
<polygon fill="none" stroke="black" points="1321.5,-158.5 1321.5,-179.5 1454.5,-179.5 1454.5,-158.5 1321.5,-158.5"/>
<text text-anchor="start" x="1347" y="-165.3" font-family="Times New Roman,Times,Liberation Serif,serif" font-size="14.00">initial_position</text>
<polygon fill="none" stroke="black" points="1454.5,-158.5 1454.5,-179.5 1503.5,-179.5 1503.5,-158.5 1454.5,-158.5"/>
<text text-anchor="start" x="1457.5" y="-165.3" font-family="Times New Roman,Times,Liberation Serif,serif" font-size="14.00">Vector3</text>
<polygon fill="none" stroke="black" points="1321.5,-137.5 1321.5,-158.5 1454.5,-158.5 1454.5,-137.5 1321.5,-137.5"/>
<text text-anchor="start" x="1324.5" y="-144.3" font-family="Times New Roman,Times,Liberation Serif,serif" font-size="14.00">frequency_filter_cutoff</text>
<polygon fill="none" stroke="black" points="1454.5,-137.5 1454.5,-158.5 1503.5,-158.5 1503.5,-137.5 1454.5,-137.5"/>
<text text-anchor="start" x="1466.5" y="-144.3" font-family="Times New Roman,Times,Liberation Serif,serif" font-size="14.00">float</text>
<polygon fill="none" stroke="black" points="1321.5,-116.5 1321.5,-137.5 1454.5,-137.5 1454.5,-116.5 1321.5,-116.5"/>
<text text-anchor="start" x="1337.5" y="-123.3" font-family="Times New Roman,Times,Liberation Serif,serif" font-size="14.00">velocity_threshold</text>
<polygon fill="none" stroke="black" points="1454.5,-116.5 1454.5,-137.5 1503.5,-137.5 1503.5,-116.5 1454.5,-116.5"/>
<text text-anchor="start" x="1466.5" y="-123.3" font-family="Times New Roman,Times,Liberation Serif,serif" font-size="14.00">float</text>
</a>
</g>
</g>
<!-- aind_behavior_vr_foraging.task_logic.OperationControl&#45;&gt;aind_behavior_vr_foraging.task_logic.PositionControl -->
<g id="edge10" class="edge">
<title>aind_behavior_vr_foraging.task_logic.OperationControl:e&#45;&gt;aind_behavior_vr_foraging.task_logic.PositionControl:w</title>
<path fill="none" stroke="black" d="M1200.08,-287.88C1252.2,-281.22 1256.35,-222.92 1305.4,-212.95"/>
<polyline fill="none" stroke="black" points="1190,-288.5 1194.99,-288.19 "/>
<polyline fill="none" stroke="black" points="1194.99,-288.19 1199.98,-287.89 "/>
<polyline fill="none" stroke="black" points="1320.5,-211.5 1315.52,-211.98 "/>
<polygon fill="black" stroke="black" points="1314.05,-207.1 1315,-217.05 1313.01,-217.24 1312.06,-207.29 1314.05,-207.1"/>
<polyline fill="none" stroke="black" points="1315.52,-211.98 1310.55,-212.45 "/>
<polygon fill="black" stroke="black" points="1309.07,-207.57 1310.03,-217.53 1308.04,-217.72 1307.08,-207.76 1309.07,-207.57"/>
<polyline fill="none" stroke="black" points="1310.55,-212.45 1305.57,-212.93 "/>
</g>
<!-- aind_behavior_vr_foraging.task_logic.PositionControl&#45;&gt;aind_behavior_services.common.Vector3 -->
<g id="edge11" class="edge">
<title>aind_behavior_vr_foraging.task_logic.PositionControl:e&#45;&gt;aind_behavior_services.common.Vector3:w</title>
<path fill="none" stroke="black" d="M1514.61,-190.38C1559.6,-189.33 1576.84,-181.35 1619.75,-179.77"/>
<polyline fill="none" stroke="black" points="1504.5,-190.5 1509.5,-190.44 "/>
<polyline fill="none" stroke="black" points="1509.5,-190.44 1514.5,-190.39 "/>
<polyline fill="none" stroke="black" points="1635,-179.5 1630,-179.59 "/>
<polygon fill="black" stroke="black" points="1628.91,-174.61 1629.09,-184.61 1627.09,-184.64 1626.91,-174.64 1628.91,-174.61"/>
<polyline fill="none" stroke="black" points="1630,-179.59 1625,-179.68 "/>
<polygon fill="black" stroke="black" points="1623.91,-174.7 1624.09,-184.69 1622.09,-184.73 1621.91,-174.73 1623.91,-174.7"/>
<polyline fill="none" stroke="black" points="1625,-179.68 1620,-179.77 "/>
</g>
<!-- aind_behavior_vr_foraging.task_logic.PositionControl&#45;&gt;aind_behavior_services.common.Vector3 -->
<g id="edge12" class="edge">
<title>aind_behavior_vr_foraging.task_logic.PositionControl:e&#45;&gt;aind_behavior_services.common.Vector3:w</title>
<path fill="none" stroke="black" d="M1514.61,-168.62C1559.6,-169.67 1576.84,-177.65 1619.75,-179.23"/>
<polyline fill="none" stroke="black" points="1504.5,-168.5 1509.5,-168.56 "/>
<polyline fill="none" stroke="black" points="1509.5,-168.56 1514.5,-168.61 "/>
<polyline fill="none" stroke="black" points="1635,-179.5 1630,-179.41 "/>
<polygon fill="black" stroke="black" points="1629.09,-174.39 1628.91,-184.39 1626.91,-184.36 1627.09,-174.36 1629.09,-174.39"/>
<polyline fill="none" stroke="black" points="1630,-179.41 1625,-179.32 "/>
<polygon fill="black" stroke="black" points="1624.09,-174.31 1623.91,-184.3 1621.91,-184.27 1622.09,-174.27 1624.09,-174.31"/>
<polyline fill="none" stroke="black" points="1625,-179.32 1620,-179.23 "/>
</g>
</g>
</svg>
