<?xml version="1.0" encoding="UTF-8" standalone="no"?>
<!DOCTYPE svg PUBLIC "-//W3C//DTD SVG 1.1//EN"
 "http://www.w3.org/Graphics/SVG/1.1/DTD/svg11.dtd">
<!-- Generated by graphviz version 14.1.5 (20260411.2331)
 -->
<!-- Title: Entity Relationship Diagram created by erdantic Pages: 1 -->
<svg width="1749pt" height="666pt"
 viewBox="0.00 0.00 1749.00 666.00" xmlns="http://www.w3.org/2000/svg" xmlns:xlink="http://www.w3.org/1999/xlink">
<g id="graph0" class="graph" transform="scale(1 1) rotate(0) translate(4 662.25)">
<title>Entity Relationship Diagram created by erdantic</title>
<polygon fill="white" stroke="none" points="-4,4 -4,-662.25 1744.75,-662.25 1744.75,4 -4,4"/>
<text xml:space="preserve" text-anchor="middle" x="870.38" y="-5.95" font-family="Times New Roman,Times,Liberation Serif,serif" font-size="9.00" fill="#a8a8a8">Created by erdantic v1.2.1 &lt;https://github.com/drivendataorg/erdantic&gt;</text>
<!-- aind_behavior_services.common.Vector3 -->
<g id="node1" class="node">
<title>aind_behavior_services.common.Vector3</title>
<g id="a_node1"><a xlink:title="aind_behavior_services.common.Vector3&#10;&#10;Represents a 3D vector with float coordinates.&#10;">
<polygon fill="none" stroke="black" points="1688.25,-178.75 1688.25,-201.25 1740.75,-201.25 1740.75,-178.75 1688.25,-178.75"/>
<text xml:space="preserve" text-anchor="start" x="1691.25" y="-185.95" font-family="Times New Roman,Times,Liberation Serif,serif" font-weight="bold" font-size="14.00">Vector3</text>
<polygon fill="none" stroke="black" points="1688.25,-156.25 1688.25,-178.75 1705.5,-178.75 1705.5,-156.25 1688.25,-156.25"/>
<text xml:space="preserve" text-anchor="start" x="1693.12" y="-163" font-family="Times New Roman,Times,Liberation Serif,serif" font-size="14.00">x</text>
<polygon fill="none" stroke="black" points="1705.5,-156.25 1705.5,-178.75 1740.75,-178.75 1740.75,-156.25 1705.5,-156.25"/>
<text xml:space="preserve" text-anchor="start" x="1710.38" y="-163" font-family="Times New Roman,Times,Liberation Serif,serif" font-size="14.00">float</text>
<polygon fill="none" stroke="black" points="1688.25,-133.75 1688.25,-156.25 1705.5,-156.25 1705.5,-133.75 1688.25,-133.75"/>
<text xml:space="preserve" text-anchor="start" x="1693.12" y="-140.5" font-family="Times New Roman,Times,Liberation Serif,serif" font-size="14.00">y</text>
<polygon fill="none" stroke="black" points="1705.5,-133.75 1705.5,-156.25 1740.75,-156.25 1740.75,-133.75 1705.5,-133.75"/>
<text xml:space="preserve" text-anchor="start" x="1710.38" y="-140.5" font-family="Times New Roman,Times,Liberation Serif,serif" font-size="14.00">float</text>
<polygon fill="none" stroke="black" points="1688.25,-111.25 1688.25,-133.75 1705.5,-133.75 1705.5,-111.25 1688.25,-111.25"/>
<text xml:space="preserve" text-anchor="start" x="1693.88" y="-118" font-family="Times New Roman,Times,Liberation Serif,serif" font-size="14.00">z</text>
<polygon fill="none" stroke="black" points="1705.5,-111.25 1705.5,-133.75 1740.75,-133.75 1740.75,-111.25 1705.5,-111.25"/>
<text xml:space="preserve" text-anchor="start" x="1710.38" y="-118" font-family="Times New Roman,Times,Liberation Serif,serif" font-size="14.00">float</text>
</a>
</g>
</g>
<!-- aind_behavior_vr_foraging.task_logic.AindVrForagingTaskLogic -->
<g id="node2" class="node">
<title>aind_behavior_vr_foraging.task_logic.AindVrForagingTaskLogic</title>
<g id="a_node2"><a xlink:title="aind_behavior_vr_foraging.task_logic.AindVrForagingTaskLogic&#10;&#10;Main task logic model for the AIND VR Foraging task.&#10;&#10;This is the top&#45;level class that encapsulates the complete task logic&#10;specification for the virtual reality foraging behavioral experiment.&#10;It includes all task parameters, environment specifications, and control settings.&#10;">
<polygon fill="none" stroke="black" points="0,-598.25 0,-620.75 287.25,-620.75 287.25,-598.25 0,-598.25"/>
<text xml:space="preserve" text-anchor="start" x="60" y="-605.45" font-family="Times New Roman,Times,Liberation Serif,serif" font-weight="bold" font-size="14.00">AindVrForagingTaskLogic</text>
<polygon fill="none" stroke="black" points="0,-575.75 0,-598.25 96.75,-598.25 96.75,-575.75 0,-575.75"/>
<text xml:space="preserve" text-anchor="start" x="33" y="-582.5" font-family="Times New Roman,Times,Liberation Serif,serif" font-size="14.00">name</text>
<polygon fill="none" stroke="black" points="96.75,-575.75 96.75,-598.25 287.25,-598.25 287.25,-575.75 96.75,-575.75"/>
<text xml:space="preserve" text-anchor="start" x="118.88" y="-582.5" font-family="Times New Roman,Times,Liberation Serif,serif" font-size="14.00">Literal[&#39;AindVrForaging&#39;]</text>
<polygon fill="none" stroke="black" points="0,-553.25 0,-575.75 96.75,-575.75 96.75,-553.25 0,-553.25"/>
<text xml:space="preserve" text-anchor="start" x="16.88" y="-560" font-family="Times New Roman,Times,Liberation Serif,serif" font-size="14.00">description</text>
<polygon fill="none" stroke="black" points="96.75,-553.25 96.75,-575.75 287.25,-575.75 287.25,-553.25 96.75,-553.25"/>
<text xml:space="preserve" text-anchor="start" x="185.25" y="-560" font-family="Times New Roman,Times,Liberation Serif,serif" font-size="14.00">str</text>
<polygon fill="none" stroke="black" points="0,-530.75 0,-553.25 96.75,-553.25 96.75,-530.75 0,-530.75"/>
<text xml:space="preserve" text-anchor="start" x="3" y="-537.5" font-family="Times New Roman,Times,Liberation Serif,serif" font-size="14.00">task_parameters</text>
<polygon fill="none" stroke="black" points="96.75,-530.75 96.75,-553.25 287.25,-553.25 287.25,-530.75 96.75,-530.75"/>
<text xml:space="preserve" text-anchor="start" x="99.75" y="-537.5" font-family="Times New Roman,Times,Liberation Serif,serif" font-size="14.00">AindVrForagingTaskParameters</text>
<polygon fill="none" stroke="black" points="0,-508.25 0,-530.75 96.75,-530.75 96.75,-508.25 0,-508.25"/>
<text xml:space="preserve" text-anchor="start" x="27.38" y="-515" font-family="Times New Roman,Times,Liberation Serif,serif" font-size="14.00">version</text>
<polygon fill="none" stroke="black" points="96.75,-508.25 96.75,-530.75 287.25,-530.75 287.25,-508.25 96.75,-508.25"/>
<text xml:space="preserve" text-anchor="start" x="151.88" y="-515" font-family="Times New Roman,Times,Liberation Serif,serif" font-size="14.00">Literal[&#39;1.2.1&#39;]</text>
<polygon fill="none" stroke="black" points="0,-485.75 0,-508.25 96.75,-508.25 96.75,-485.75 0,-485.75"/>
<text xml:space="preserve" text-anchor="start" x="15" y="-492.5" font-family="Times New Roman,Times,Liberation Serif,serif" font-size="14.00">stage_name</text>
<polygon fill="none" stroke="black" points="96.75,-485.75 96.75,-508.25 287.25,-508.25 287.25,-485.75 96.75,-485.75"/>
<text xml:space="preserve" text-anchor="start" x="155.62" y="-492.5" font-family="Times New Roman,Times,Liberation Serif,serif" font-size="14.00">Optional[str]</text>
</a>
</g>
</g>
<!-- aind_behavior_vr_foraging.task_logic.AindVrForagingTaskParameters -->
<g id="node3" class="node">
<title>aind_behavior_vr_foraging.task_logic.AindVrForagingTaskParameters</title>
<g id="a_node3"><a xlink:title="aind_behavior_vr_foraging.task_logic.AindVrForagingTaskParameters&#10;&#10;Complete parameter specification for the AIND VR Foraging task.&#10;&#10;This class contains all configurable parameters for the VR foraging task,&#10;including environment structure, task mode settings, operation control,&#10;and numerical updaters for dynamic parameter modification.&#10;">
<polygon fill="none" stroke="black" points="395.25,-531.25 395.25,-553.75 845.25,-553.75 845.25,-531.25 395.25,-531.25"/>
<text xml:space="preserve" text-anchor="start" x="519" y="-538.45" font-family="Times New Roman,Times,Liberation Serif,serif" font-weight="bold" font-size="14.00">AindVrForagingTaskParameters</text>
<polygon fill="none" stroke="black" points="395.25,-508.75 395.25,-531.25 615,-531.25 615,-508.75 395.25,-508.75"/>
<text xml:space="preserve" text-anchor="start" x="479.25" y="-515.5" font-family="Times New Roman,Times,Liberation Serif,serif" font-size="14.00">rng_seed</text>
<polygon fill="none" stroke="black" points="615,-508.75 615,-531.25 845.25,-531.25 845.25,-508.75 615,-508.75"/>
<text xml:space="preserve" text-anchor="start" x="687.75" y="-515.5" font-family="Times New Roman,Times,Liberation Serif,serif" font-size="14.00">Optional[float]</text>
<polygon fill="none" stroke="black" points="395.25,-486.25 395.25,-508.75 615,-508.75 615,-486.25 395.25,-486.25"/>
<text xml:space="preserve" text-anchor="start" x="398.25" y="-493" font-family="Times New Roman,Times,Liberation Serif,serif" font-size="14.00">aind_behavior_services_pkg_version</text>
<polygon fill="none" stroke="black" points="615,-486.25 615,-508.75 845.25,-508.75 845.25,-486.25 615,-486.25"/>
<text xml:space="preserve" text-anchor="start" x="686.25" y="-493" font-family="Times New Roman,Times,Liberation Serif,serif" font-size="14.00">Literal[&#39;0.13.7&#39;]</text>
<polygon fill="none" stroke="black" points="395.25,-463.75 395.25,-486.25 615,-486.25 615,-463.75 395.25,-463.75"/>
<text xml:space="preserve" text-anchor="start" x="481.12" y="-470.5" font-family="Times New Roman,Times,Liberation Serif,serif" font-size="14.00">updaters</text>
<polygon fill="none" stroke="black" points="615,-463.75 615,-486.25 845.25,-486.25 845.25,-463.75 615,-463.75"/>
<text xml:space="preserve" text-anchor="start" x="618" y="-470.5" font-family="Times New Roman,Times,Liberation Serif,serif" font-size="14.00">dict[UpdaterTarget, NumericalUpdater]</text>
<polygon fill="none" stroke="black" points="395.25,-441.25 395.25,-463.75 615,-463.75 615,-441.25 395.25,-441.25"/>
<text xml:space="preserve" text-anchor="start" x="468.75" y="-448" font-family="Times New Roman,Times,Liberation Serif,serif" font-size="14.00">environment</text>
<polygon fill="none" stroke="black" points="615,-441.25 615,-463.75 845.25,-463.75 845.25,-441.25 615,-441.25"/>
<text xml:space="preserve" text-anchor="start" x="687" y="-448" font-family="Times New Roman,Times,Liberation Serif,serif" font-size="14.00">BlockStructure</text>
<polygon fill="none" stroke="black" points="395.25,-418.75 395.25,-441.25 615,-441.25 615,-418.75 395.25,-418.75"/>
<text xml:space="preserve" text-anchor="start" x="454.12" y="-425.5" font-family="Times New Roman,Times,Liberation Serif,serif" font-size="14.00">operation_control</text>
<polygon fill="none" stroke="black" points="615,-418.75 615,-441.25 845.25,-441.25 845.25,-418.75 615,-418.75"/>
<text xml:space="preserve" text-anchor="start" x="679.5" y="-425.5" font-family="Times New Roman,Times,Liberation Serif,serif" font-size="14.00">OperationControl</text>
</a>
</g>
</g>
<!-- aind_behavior_vr_foraging.task_logic.AindVrForagingTaskLogic&#45;&gt;aind_behavior_vr_foraging.task_logic.AindVrForagingTaskParameters -->
<g id="edge1" class="edge">
<title>aind_behavior_vr_foraging.task_logic.AindVrForagingTaskLogic:e&#45;&gt;aind_behavior_vr_foraging.task_logic.AindVrForagingTaskParameters:w</title>
<path fill="none" stroke="black" d="M297.12,-542.01C332.32,-542.06 347.05,-542.4 380.33,-542.48"/>
<polyline fill="none" stroke="black" points="287.25,-542 292.25,-542"/>
<polyline fill="none" stroke="black" points="292.25,-542 297.25,-542.01"/>
<polyline fill="none" stroke="black" points="395.25,-542.5 390.25,-542.49"/>
<polygon fill="black" stroke="black" points="389.26,-537.49 389.24,-547.49 387.24,-547.49 387.26,-537.49 389.26,-537.49"/>
<polyline fill="none" stroke="black" points="390.25,-542.49 385.25,-542.49"/>
<polygon fill="black" stroke="black" points="384.26,-537.49 384.24,-547.49 382.24,-547.48 382.26,-537.48 384.26,-537.49"/>
<polyline fill="none" stroke="black" points="385.25,-542.49 380.25,-542.48"/>
</g>
<!-- aind_behavior_vr_foraging.task_logic.BlockStructure -->
<g id="node6" class="node">
<title>aind_behavior_vr_foraging.task_logic.BlockStructure</title>
<g id="a_node6"><a xlink:title="aind_behavior_vr_foraging.task_logic.BlockStructure&#10;&#10;Structure defining the sequence and sampling of experimental blocks.&#10;&#10;This class manages multiple experimental blocks and determines how they&#10;are presented during the experiment (sequentially or randomly).&#10;">
<polygon fill="none" stroke="black" points="953.25,-441.5 953.25,-464 1229.25,-464 1229.25,-441.5 953.25,-441.5"/>
<text xml:space="preserve" text-anchor="start" x="1044.75" y="-448.7" font-family="Times New Roman,Times,Liberation Serif,serif" font-weight="bold" font-size="14.00">BlockStructure</text>
<polygon fill="none" stroke="black" points="953.25,-419 953.25,-441.5 1051.5,-441.5 1051.5,-419 953.25,-419"/>
<text xml:space="preserve" text-anchor="start" x="983.62" y="-425.75" font-family="Times New Roman,Times,Liberation Serif,serif" font-size="14.00">blocks</text>
<polygon fill="none" stroke="black" points="1051.5,-419 1051.5,-441.5 1229.25,-441.5 1229.25,-419 1051.5,-419"/>
<text xml:space="preserve" text-anchor="start" x="1110.38" y="-425.75" font-family="Times New Roman,Times,Liberation Serif,serif" font-size="14.00">list[Block]</text>
<polygon fill="none" stroke="black" points="953.25,-396.5 953.25,-419 1051.5,-419 1051.5,-396.5 953.25,-396.5"/>
<text xml:space="preserve" text-anchor="start" x="956.25" y="-403.25" font-family="Times New Roman,Times,Liberation Serif,serif" font-size="14.00">sampling_mode</text>
<polygon fill="none" stroke="black" points="1051.5,-396.5 1051.5,-419 1229.25,-419 1229.25,-396.5 1051.5,-396.5"/>
<text xml:space="preserve" text-anchor="start" x="1054.5" y="-403.25" font-family="Times New Roman,Times,Liberation Serif,serif" font-size="14.00">Literal[&#39;Random&#39;, &#39;Sequential&#39;]</text>
</a>
</g>
</g>
<!-- aind_behavior_vr_foraging.task_logic.AindVrForagingTaskParameters&#45;&gt;aind_behavior_vr_foraging.task_logic.BlockStructure -->
<g id="edge2" class="edge">
<title>aind_behavior_vr_foraging.task_logic.AindVrForagingTaskParameters:e&#45;&gt;aind_behavior_vr_foraging.task_logic.BlockStructure:w</title>
<path fill="none" stroke="black" d="M855.12,-452.5C890.32,-452.53 905.05,-452.7 938.33,-452.74"/>
<polyline fill="none" stroke="black" points="845.25,-452.5 850.25,-452.5"/>
<polyline fill="none" stroke="black" points="850.25,-452.5 855.25,-452.5"/>
<polyline fill="none" stroke="black" points="953.25,-452.75 948.25,-452.75"/>
<polygon fill="black" stroke="black" points="947.25,-447.75 947.25,-457.75 945.25,-457.75 945.25,-447.75 947.25,-447.75"/>
<polyline fill="none" stroke="black" points="948.25,-452.75 943.25,-452.74"/>
<polygon fill="black" stroke="black" points="942.25,-447.74 942.25,-457.74 940.25,-457.74 940.25,-447.74 942.25,-447.74"/>
<polyline fill="none" stroke="black" points="943.25,-452.74 938.25,-452.74"/>
</g>
<!-- aind_behavior_vr_foraging.task_logic.NumericalUpdater -->
<g id="node7" class="node">
<title>aind_behavior_vr_foraging.task_logic.NumericalUpdater</title>
<g id="a_node7"><a xlink:title="aind_behavior_vr_foraging.task_logic.NumericalUpdater&#10;&#10;A numerical updater that modifies task parameters during execution.&#10;&#10;This class combines an operation type with parameters to define how values&#10;should be updated dynamically during the task, enabling adaptive behavior&#10;based on animal performance or other criteria.&#10;">
<polygon fill="none" stroke="black" points="971.62,-612.5 971.62,-635 1210.88,-635 1210.88,-612.5 971.62,-612.5"/>
<text xml:space="preserve" text-anchor="start" x="1033.88" y="-619.7" font-family="Times New Roman,Times,Liberation Serif,serif" font-weight="bold" font-size="14.00">NumericalUpdater</text>
<polygon fill="none" stroke="black" points="971.62,-590 971.62,-612.5 1038.38,-612.5 1038.38,-590 971.62,-590"/>
<text xml:space="preserve" text-anchor="start" x="978" y="-596.75" font-family="Times New Roman,Times,Liberation Serif,serif" font-size="14.00">operation</text>
<polygon fill="none" stroke="black" points="1038.38,-590 1038.38,-612.5 1210.88,-612.5 1210.88,-590 1038.38,-590"/>
<text xml:space="preserve" text-anchor="start" x="1043.62" y="-596.75" font-family="Times New Roman,Times,Liberation Serif,serif" font-size="14.00">NumericalUpdaterOperation</text>
<polygon fill="none" stroke="black" points="971.62,-567.5 971.62,-590 1038.38,-590 1038.38,-567.5 971.62,-567.5"/>
<text xml:space="preserve" text-anchor="start" x="974.62" y="-574.25" font-family="Times New Roman,Times,Liberation Serif,serif" font-size="14.00">parameters</text>
<polygon fill="none" stroke="black" points="1038.38,-567.5 1038.38,-590 1210.88,-590 1210.88,-567.5 1038.38,-567.5"/>
<text xml:space="preserve" text-anchor="start" x="1041.38" y="-574.25" font-family="Times New Roman,Times,Liberation Serif,serif" font-size="14.00">NumericalUpdaterParameters</text>
</a>
</g>
</g>
<!-- aind_behavior_vr_foraging.task_logic.AindVrForagingTaskParameters&#45;&gt;aind_behavior_vr_foraging.task_logic.NumericalUpdater -->
<g id="edge4" class="edge">
<title>aind_behavior_vr_foraging.task_logic.AindVrForagingTaskParameters:e&#45;&gt;aind_behavior_vr_foraging.task_logic.NumericalUpdater:w</title>
<path fill="none" stroke="black" d="M854.78,-475.66C923.33,-485.68 892.44,-606.07 955.64,-622.01"/>
<polyline fill="none" stroke="black" points="845.25,-475 850.24,-475.35"/>
<polyline fill="none" stroke="black" points="850.24,-475.35 855.23,-475.69"/>
<polygon fill="black" stroke="black" points="960.36,-622.56 969.77,-628.18 965.66,-623.17 969.96,-623.67 969.96,-623.67 969.96,-623.67 965.66,-623.17 970.81,-619.24 960.36,-622.56"/>
<polyline fill="none" stroke="black" points="959.15,-622.42 954.18,-621.84"/>
</g>
<!-- aind_behavior_vr_foraging.task_logic.OperationControl -->
<g id="node10" class="node">
<title>aind_behavior_vr_foraging.task_logic.OperationControl</title>
<g id="a_node10"><a xlink:title="aind_behavior_vr_foraging.task_logic.OperationControl&#10;&#10;Master control class for all operational hardware systems.&#10;&#10;This class aggregates all the hardware control specifications including&#10;odor delivery, position tracking, and audio systems.&#10;It provides a centralized configuration point for all task hardware.&#10;">
<polygon fill="none" stroke="black" points="970.5,-297.25 970.5,-319.75 1212,-319.75 1212,-297.25 970.5,-297.25"/>
<text xml:space="preserve" text-anchor="start" x="1035.75" y="-304.45" font-family="Times New Roman,Times,Liberation Serif,serif" font-weight="bold" font-size="14.00">OperationControl</text>
<polygon fill="none" stroke="black" points="970.5,-274.75 970.5,-297.25 1114.5,-297.25 1114.5,-274.75 970.5,-274.75"/>
<text xml:space="preserve" text-anchor="start" x="1005" y="-281.5" font-family="Times New Roman,Times,Liberation Serif,serif" font-size="14.00">odor_control</text>
<polygon fill="none" stroke="black" points="1114.5,-274.75 1114.5,-297.25 1212,-297.25 1212,-274.75 1114.5,-274.75"/>
<text xml:space="preserve" text-anchor="start" x="1126.12" y="-281.5" font-family="Times New Roman,Times,Liberation Serif,serif" font-size="14.00">OdorControl</text>
<polygon fill="none" stroke="black" points="970.5,-252.25 970.5,-274.75 1114.5,-274.75 1114.5,-252.25 970.5,-252.25"/>
<text xml:space="preserve" text-anchor="start" x="995.25" y="-259" font-family="Times New Roman,Times,Liberation Serif,serif" font-size="14.00">position_control</text>
<polygon fill="none" stroke="black" points="1114.5,-252.25 1114.5,-274.75 1212,-274.75 1212,-252.25 1114.5,-252.25"/>
<text xml:space="preserve" text-anchor="start" x="1117.5" y="-259" font-family="Times New Roman,Times,Liberation Serif,serif" font-size="14.00">PositionControl</text>
<polygon fill="none" stroke="black" points="970.5,-229.75 970.5,-252.25 1114.5,-252.25 1114.5,-229.75 970.5,-229.75"/>
<text xml:space="preserve" text-anchor="start" x="1002.38" y="-236.5" font-family="Times New Roman,Times,Liberation Serif,serif" font-size="14.00">audio_control</text>
<polygon fill="none" stroke="black" points="1114.5,-229.75 1114.5,-252.25 1212,-252.25 1212,-229.75 1114.5,-229.75"/>
<text xml:space="preserve" text-anchor="start" x="1122.75" y="-236.5" font-family="Times New Roman,Times,Liberation Serif,serif" font-size="14.00">AudioControl</text>
<polygon fill="none" stroke="black" points="970.5,-207.25 970.5,-229.75 1114.5,-229.75 1114.5,-207.25 970.5,-207.25"/>
<text xml:space="preserve" text-anchor="start" x="978" y="-214" font-family="Times New Roman,Times,Liberation Serif,serif" font-size="14.00">wait_to_start_duration</text>
<polygon fill="none" stroke="black" points="1114.5,-207.25 1114.5,-229.75 1212,-229.75 1212,-207.25 1114.5,-207.25"/>
<text xml:space="preserve" text-anchor="start" x="1150.5" y="-214" font-family="Times New Roman,Times,Liberation Serif,serif" font-size="14.00">float</text>
<polygon fill="none" stroke="black" points="970.5,-184.75 970.5,-207.25 1114.5,-207.25 1114.5,-184.75 970.5,-184.75"/>
<text xml:space="preserve" text-anchor="start" x="973.5" y="-191.5" font-family="Times New Roman,Times,Liberation Serif,serif" font-size="14.00">wait_to_finish_duration</text>
<polygon fill="none" stroke="black" points="1114.5,-184.75 1114.5,-207.25 1212,-207.25 1212,-184.75 1114.5,-184.75"/>
<text xml:space="preserve" text-anchor="start" x="1150.5" y="-191.5" font-family="Times New Roman,Times,Liberation Serif,serif" font-size="14.00">float</text>
</a>
</g>
</g>
<!-- aind_behavior_vr_foraging.task_logic.AindVrForagingTaskParameters&#45;&gt;aind_behavior_vr_foraging.task_logic.OperationControl -->
<g id="edge3" class="edge">
<title>aind_behavior_vr_foraging.task_logic.AindVrForagingTaskParameters:e&#45;&gt;aind_behavior_vr_foraging.task_logic.OperationControl:w</title>
<path fill="none" stroke="black" d="M855.03,-429.29C915.17,-420.07 898.84,-324.4 954.62,-310.24"/>
<polyline fill="none" stroke="black" points="845.25,-430 850.24,-429.64"/>
<polyline fill="none" stroke="black" points="850.24,-429.64 855.22,-429.27"/>
<polyline fill="none" stroke="black" points="969.5,-308.5 964.53,-309.08"/>
<polygon fill="black" stroke="black" points="962.96,-304.23 964.12,-314.16 962.14,-314.4 960.97,-304.47 962.96,-304.23"/>
<polyline fill="none" stroke="black" points="964.53,-309.08 959.57,-309.66"/>
<polygon fill="black" stroke="black" points="957.99,-304.82 959.16,-314.75 957.17,-314.98 956.01,-305.05 957.99,-304.82"/>
<polyline fill="none" stroke="black" points="959.57,-309.66 954.6,-310.25"/>
</g>
<!-- aind_behavior_vr_foraging.task_logic.AudioControl -->
<g id="node4" class="node">
<title>aind_behavior_vr_foraging.task_logic.AudioControl</title>
<g id="a_node4"><a xlink:title="aind_behavior_vr_foraging.task_logic.AudioControl&#10;&#10;Controls audio feedback parameters for the task.&#10;&#10;This class manages audio cue generation including tone duration and frequency&#10;for auditory feedback during the behavioral task.&#10;">
<polygon fill="none" stroke="black" points="1411.5,-63.5 1411.5,-86 1506,-86 1506,-63.5 1411.5,-63.5"/>
<text xml:space="preserve" text-anchor="start" x="1415.62" y="-70.7" font-family="Times New Roman,Times,Liberation Serif,serif" font-weight="bold" font-size="14.00">AudioControl</text>
<polygon fill="none" stroke="black" points="1411.5,-41 1411.5,-63.5 1474.5,-63.5 1474.5,-41 1411.5,-41"/>
<text xml:space="preserve" text-anchor="start" x="1419" y="-47.75" font-family="Times New Roman,Times,Liberation Serif,serif" font-size="14.00">duration</text>
<polygon fill="none" stroke="black" points="1474.5,-41 1474.5,-63.5 1506,-63.5 1506,-41 1474.5,-41"/>
<text xml:space="preserve" text-anchor="start" x="1477.5" y="-47.75" font-family="Times New Roman,Times,Liberation Serif,serif" font-size="14.00">float</text>
<polygon fill="none" stroke="black" points="1411.5,-18.5 1411.5,-41 1474.5,-41 1474.5,-18.5 1411.5,-18.5"/>
<text xml:space="preserve" text-anchor="start" x="1414.5" y="-25.25" font-family="Times New Roman,Times,Liberation Serif,serif" font-size="14.00">frequency</text>
<polygon fill="none" stroke="black" points="1474.5,-18.5 1474.5,-41 1506,-41 1506,-18.5 1474.5,-18.5"/>
<text xml:space="preserve" text-anchor="start" x="1477.5" y="-25.25" font-family="Times New Roman,Times,Liberation Serif,serif" font-size="14.00">float</text>
</a>
</g>
</g>
<!-- aind_behavior_vr_foraging.task_logic.Block -->
<g id="node5" class="node">
<title>aind_behavior_vr_foraging.task_logic.Block</title>
<g id="a_node5"><a xlink:title="aind_behavior_vr_foraging.task_logic.Block&#10;&#10;Configuration for a single experimental block.&#10;&#10;A block represents a period of the experiment with specific environment&#10;statistics and ending conditions. Each block defines the environmental&#10;parameters and termination criteria for that experimental phase.&#10;">
<polygon fill="none" stroke="black" points="1337.25,-419.5 1337.25,-442 1580.25,-442 1580.25,-419.5 1337.25,-419.5"/>
<text xml:space="preserve" text-anchor="start" x="1441.12" y="-426.7" font-family="Times New Roman,Times,Liberation Serif,serif" font-weight="bold" font-size="14.00">Block</text>
<polygon fill="none" stroke="black" points="1337.25,-397 1337.25,-419.5 1431.75,-419.5 1431.75,-397 1337.25,-397"/>
<text xml:space="preserve" text-anchor="start" x="1348.12" y="-403.75" font-family="Times New Roman,Times,Liberation Serif,serif" font-size="14.00">environment</text>
<polygon fill="none" stroke="black" points="1431.75,-397 1431.75,-419.5 1580.25,-419.5 1580.25,-397 1431.75,-397"/>
<text xml:space="preserve" text-anchor="start" x="1468.12" y="-403.75" font-family="Times New Roman,Times,Liberation Serif,serif" font-size="14.00">Environment</text>
<polygon fill="none" stroke="black" points="1337.25,-374.5 1337.25,-397 1431.75,-397 1431.75,-374.5 1337.25,-374.5"/>
<text xml:space="preserve" text-anchor="start" x="1340.25" y="-381.25" font-family="Times New Roman,Times,Liberation Serif,serif" font-size="14.00">end_conditions</text>
<polygon fill="none" stroke="black" points="1431.75,-374.5 1431.75,-397 1580.25,-397 1580.25,-374.5 1431.75,-374.5"/>
<text xml:space="preserve" text-anchor="start" x="1434.75" y="-381.25" font-family="Times New Roman,Times,Liberation Serif,serif" font-size="14.00">list[BlockEndCondition]</text>
</a>
</g>
</g>
<!-- aind_behavior_vr_foraging.task_logic.BlockStructure&#45;&gt;aind_behavior_vr_foraging.task_logic.Block -->
<g id="edge5" class="edge">
<title>aind_behavior_vr_foraging.task_logic.BlockStructure:e&#45;&gt;aind_behavior_vr_foraging.task_logic.Block:w</title>
<path fill="none" stroke="black" d="M1239.12,-430.26C1274.17,-430.31 1288.92,-430.65 1321.89,-430.73"/>
<polyline fill="none" stroke="black" points="1229.25,-430.25 1234.25,-430.25"/>
<polyline fill="none" stroke="black" points="1234.25,-430.25 1239.25,-430.26"/>
<polygon fill="black" stroke="black" points="1326.92,-430.74 1336.91,-435.25 1332.25,-430.74 1336.58,-430.75 1336.58,-430.75 1336.58,-430.75 1332.25,-430.74 1336.92,-426.25 1326.92,-430.74"/>
<polyline fill="none" stroke="black" points="1325.7,-430.74 1320.7,-430.73"/>
</g>
<!-- aind_behavior_vr_foraging.task_logic.NumericalUpdaterParameters -->
<g id="node8" class="node">
<title>aind_behavior_vr_foraging.task_logic.NumericalUpdaterParameters</title>
<g id="a_node8"><a xlink:title="aind_behavior_vr_foraging.task_logic.NumericalUpdaterParameters&#10;&#10;Parameters that control how numerical updates are applied to task values.&#10;&#10;These parameters define the bounds and increments for updating numerical values&#10;during task execution, ensuring values stay within acceptable ranges.&#10;">
<polygon fill="none" stroke="black" points="1363.5,-635.75 1363.5,-658.25 1554,-658.25 1554,-635.75 1363.5,-635.75"/>
<text xml:space="preserve" text-anchor="start" x="1366.5" y="-642.95" font-family="Times New Roman,Times,Liberation Serif,serif" font-weight="bold" font-size="14.00">NumericalUpdaterParameters</text>
<polygon fill="none" stroke="black" points="1363.5,-613.25 1363.5,-635.75 1481.25,-635.75 1481.25,-613.25 1363.5,-613.25"/>
<text xml:space="preserve" text-anchor="start" x="1387.12" y="-620" font-family="Times New Roman,Times,Liberation Serif,serif" font-size="14.00">initial_value</text>
<polygon fill="none" stroke="black" points="1481.25,-613.25 1481.25,-635.75 1554,-635.75 1554,-613.25 1481.25,-613.25"/>
<text xml:space="preserve" text-anchor="start" x="1504.88" y="-620" font-family="Times New Roman,Times,Liberation Serif,serif" font-size="14.00">float</text>
<polygon fill="none" stroke="black" points="1363.5,-590.75 1363.5,-613.25 1481.25,-613.25 1481.25,-590.75 1363.5,-590.75"/>
<text xml:space="preserve" text-anchor="start" x="1390.5" y="-597.5" font-family="Times New Roman,Times,Liberation Serif,serif" font-size="14.00">on_success</text>
<polygon fill="none" stroke="black" points="1481.25,-590.75 1481.25,-613.25 1554,-613.25 1554,-590.75 1481.25,-590.75"/>
<text xml:space="preserve" text-anchor="start" x="1504.88" y="-597.5" font-family="Times New Roman,Times,Liberation Serif,serif" font-size="14.00">float</text>
<polygon fill="none" stroke="black" points="1363.5,-568.25 1363.5,-590.75 1481.25,-590.75 1481.25,-568.25 1363.5,-568.25"/>
<text xml:space="preserve" text-anchor="start" x="1393.12" y="-575" font-family="Times New Roman,Times,Liberation Serif,serif" font-size="14.00">on_failure</text>
<polygon fill="none" stroke="black" points="1481.25,-568.25 1481.25,-590.75 1554,-590.75 1554,-568.25 1481.25,-568.25"/>
<text xml:space="preserve" text-anchor="start" x="1504.88" y="-575" font-family="Times New Roman,Times,Liberation Serif,serif" font-size="14.00">float</text>
<polygon fill="none" stroke="black" points="1363.5,-545.75 1363.5,-568.25 1481.25,-568.25 1481.25,-545.75 1363.5,-545.75"/>
<text xml:space="preserve" text-anchor="start" x="1394.25" y="-552.5" font-family="Times New Roman,Times,Liberation Serif,serif" font-size="14.00">increment</text>
<polygon fill="none" stroke="black" points="1481.25,-545.75 1481.25,-568.25 1554,-568.25 1554,-545.75 1481.25,-545.75"/>
<text xml:space="preserve" text-anchor="start" x="1504.88" y="-552.5" font-family="Times New Roman,Times,Liberation Serif,serif" font-size="14.00">float</text>
<polygon fill="none" stroke="black" points="1363.5,-523.25 1363.5,-545.75 1481.25,-545.75 1481.25,-523.25 1363.5,-523.25"/>
<text xml:space="preserve" text-anchor="start" x="1393.12" y="-530" font-family="Times New Roman,Times,Liberation Serif,serif" font-size="14.00">decrement</text>
<polygon fill="none" stroke="black" points="1481.25,-523.25 1481.25,-545.75 1554,-545.75 1554,-523.25 1481.25,-523.25"/>
<text xml:space="preserve" text-anchor="start" x="1504.88" y="-530" font-family="Times New Roman,Times,Liberation Serif,serif" font-size="14.00">float</text>
<polygon fill="none" stroke="black" points="1363.5,-500.75 1363.5,-523.25 1481.25,-523.25 1481.25,-500.75 1363.5,-500.75"/>
<text xml:space="preserve" text-anchor="start" x="1394.25" y="-507.5" font-family="Times New Roman,Times,Liberation Serif,serif" font-size="14.00">minimum</text>
<polygon fill="none" stroke="black" points="1481.25,-500.75 1481.25,-523.25 1554,-523.25 1554,-500.75 1481.25,-500.75"/>
<text xml:space="preserve" text-anchor="start" x="1504.88" y="-507.5" font-family="Times New Roman,Times,Liberation Serif,serif" font-size="14.00">float</text>
<polygon fill="none" stroke="black" points="1363.5,-478.25 1363.5,-500.75 1481.25,-500.75 1481.25,-478.25 1363.5,-478.25"/>
<text xml:space="preserve" text-anchor="start" x="1393.12" y="-485" font-family="Times New Roman,Times,Liberation Serif,serif" font-size="14.00">maximum</text>
<polygon fill="none" stroke="black" points="1481.25,-478.25 1481.25,-500.75 1554,-500.75 1554,-478.25 1481.25,-478.25"/>
<text xml:space="preserve" text-anchor="start" x="1504.88" y="-485" font-family="Times New Roman,Times,Liberation Serif,serif" font-size="14.00">float</text>
</a>
</g>
</g>
<!-- aind_behavior_vr_foraging.task_logic.NumericalUpdater&#45;&gt;aind_behavior_vr_foraging.task_logic.NumericalUpdaterParameters -->
<g id="edge6" class="edge">
<title>aind_behavior_vr_foraging.task_logic.NumericalUpdater:e&#45;&gt;aind_behavior_vr_foraging.task_logic.NumericalUpdaterParameters:w</title>
<path fill="none" stroke="black" d="M1221.76,-579.19C1280.98,-584.56 1291.11,-637.88 1347.54,-645.97"/>
<polyline fill="none" stroke="black" points="1211.88,-578.75 1216.87,-578.97"/>
<polyline fill="none" stroke="black" points="1216.87,-578.97 1221.87,-579.19"/>
<polyline fill="none" stroke="black" points="1362.5,-647 1357.51,-646.66"/>
<polygon fill="black" stroke="black" points="1356.86,-641.6 1356.17,-651.58 1354.18,-651.44 1354.86,-641.46 1356.86,-641.6"/>
<polyline fill="none" stroke="black" points="1357.51,-646.66 1352.52,-646.31"/>
<polygon fill="black" stroke="black" points="1351.87,-641.26 1351.18,-651.23 1349.19,-651.1 1349.87,-641.12 1351.87,-641.26"/>
<polyline fill="none" stroke="black" points="1352.52,-646.31 1347.54,-645.97"/>
</g>
<!-- aind_behavior_vr_foraging.task_logic.OdorControl -->
<g id="node9" class="node">
<title>aind_behavior_vr_foraging.task_logic.OdorControl</title>
<g id="a_node9"><a xlink:title="aind_behavior_vr_foraging.task_logic.OdorControl&#10;&#10;Controls the odor delivery system parameters.&#10;&#10;This class manages the olfactory stimulus delivery system, including flow rates,&#10;valve timing, and carrier gas configuration. It ensures proper odor concentration&#10;and delivery timing for the behavioral task.&#10;">
<polygon fill="none" stroke="black" points="1395.38,-315.5 1395.38,-338 1522.12,-338 1522.12,-315.5 1395.38,-315.5"/>
<text xml:space="preserve" text-anchor="start" x="1418.25" y="-322.7" font-family="Times New Roman,Times,Liberation Serif,serif" font-weight="bold" font-size="14.00">OdorControl</text>
<polygon fill="none" stroke="black" points="1395.38,-293 1395.38,-315.5 1501.12,-315.5 1501.12,-293 1395.38,-293"/>
<text xml:space="preserve" text-anchor="start" x="1399.5" y="-299.75" font-family="Times New Roman,Times,Liberation Serif,serif" font-size="14.00">target_total_flow</text>
<polygon fill="none" stroke="black" points="1501.12,-293 1501.12,-315.5 1522.12,-315.5 1522.12,-293 1501.12,-293"/>
<text xml:space="preserve" text-anchor="start" x="1504.12" y="-299.75" font-family="Times New Roman,Times,Liberation Serif,serif" font-size="14.00">int</text>
<polygon fill="none" stroke="black" points="1395.38,-270.5 1395.38,-293 1501.12,-293 1501.12,-270.5 1395.38,-270.5"/>
<text xml:space="preserve" text-anchor="start" x="1398.38" y="-277.25" font-family="Times New Roman,Times,Liberation Serif,serif" font-size="14.00">target_odor_flow</text>
<polygon fill="none" stroke="black" points="1501.12,-270.5 1501.12,-293 1522.12,-293 1522.12,-270.5 1501.12,-270.5"/>
<text xml:space="preserve" text-anchor="start" x="1504.12" y="-277.25" font-family="Times New Roman,Times,Liberation Serif,serif" font-size="14.00">int</text>
</a>
</g>
</g>
<!-- aind_behavior_vr_foraging.task_logic.OperationControl&#45;&gt;aind_behavior_vr_foraging.task_logic.AudioControl -->
<g id="edge7" class="edge">
<title>aind_behavior_vr_foraging.task_logic.OperationControl:e&#45;&gt;aind_behavior_vr_foraging.task_logic.AudioControl:w</title>
<path fill="none" stroke="black" d="M1222.58,-240.56C1293.2,-233.7 1272.61,-149.24 1337.25,-104.25 1361.55,-87.33 1372.01,-77.96 1395.76,-75.45"/>
<polyline fill="none" stroke="black" points="1213,-241 1217.99,-240.77"/>
<polyline fill="none" stroke="black" points="1217.99,-240.77 1222.99,-240.54"/>
<polyline fill="none" stroke="black" points="1410.5,-74.75 1405.51,-74.99"/>
<polygon fill="black" stroke="black" points="1404.27,-70.04 1404.74,-80.03 1402.74,-80.12 1402.27,-70.13 1404.27,-70.04"/>
<polyline fill="none" stroke="black" points="1405.51,-74.99 1400.51,-75.22"/>
<polygon fill="black" stroke="black" points="1399.28,-70.27 1399.75,-80.26 1397.75,-80.36 1397.28,-70.37 1399.28,-70.27"/>
<polyline fill="none" stroke="black" points="1400.51,-75.22 1395.52,-75.46"/>
</g>
<!-- aind_behavior_vr_foraging.task_logic.OperationControl&#45;&gt;aind_behavior_vr_foraging.task_logic.OdorControl -->
<g id="edge8" class="edge">
<title>aind_behavior_vr_foraging.task_logic.OperationControl:e&#45;&gt;aind_behavior_vr_foraging.task_logic.OdorControl:w</title>
<path fill="none" stroke="black" d="M1222.84,-286.2C1292.27,-289.08 1312.58,-322.06 1379.79,-326.3"/>
<polyline fill="none" stroke="black" points="1213,-286 1218,-286.1"/>
<polyline fill="none" stroke="black" points="1218,-286.1 1223,-286.2"/>
<polyline fill="none" stroke="black" points="1394.38,-326.75 1389.38,-326.6"/>
<polygon fill="black" stroke="black" points="1388.53,-321.57 1388.22,-331.56 1386.23,-331.5 1386.53,-321.51 1388.53,-321.57"/>
<polyline fill="none" stroke="black" points="1389.38,-326.6 1384.38,-326.44"/>
<polygon fill="black" stroke="black" points="1383.53,-321.41 1383.23,-331.41 1381.23,-331.35 1381.53,-321.35 1383.53,-321.41"/>
<polyline fill="none" stroke="black" points="1384.38,-326.44 1379.38,-326.29"/>
</g>
<!-- aind_behavior_vr_foraging.task_logic.PositionControl -->
<g id="node11" class="node">
<title>aind_behavior_vr_foraging.task_logic.PositionControl</title>
<g id="a_node11"><a xlink:title="aind_behavior_vr_foraging.task_logic.PositionControl&#10;&#10;Controls the position tracking and movement detection parameters.&#10;&#10;This class manages the position control system including coordinate transformations,&#10;initial positioning, signal filtering, and movement detection thresholds for the&#10;virtual reality foraging task.&#10;">
<polygon fill="none" stroke="black" points="1364.62,-212 1364.62,-234.5 1552.88,-234.5 1552.88,-212 1364.62,-212"/>
<text xml:space="preserve" text-anchor="start" x="1410" y="-219.2" font-family="Times New Roman,Times,Liberation Serif,serif" font-weight="bold" font-size="14.00">PositionControl</text>
<polygon fill="none" stroke="black" points="1364.62,-189.5 1364.62,-212 1502.62,-212 1502.62,-189.5 1364.62,-189.5"/>
<text xml:space="preserve" text-anchor="start" x="1421.25" y="-196.25" font-family="Times New Roman,Times,Liberation Serif,serif" font-size="14.00">gain</text>
<polygon fill="none" stroke="black" points="1502.62,-189.5 1502.62,-212 1552.88,-212 1552.88,-189.5 1502.62,-189.5"/>
<text xml:space="preserve" text-anchor="start" x="1505.62" y="-196.25" font-family="Times New Roman,Times,Liberation Serif,serif" font-size="14.00">Vector3</text>
<polygon fill="none" stroke="black" points="1364.62,-167 1364.62,-189.5 1502.62,-189.5 1502.62,-167 1364.62,-167"/>
<text xml:space="preserve" text-anchor="start" x="1390.5" y="-173.75" font-family="Times New Roman,Times,Liberation Serif,serif" font-size="14.00">initial_position</text>
<polygon fill="none" stroke="black" points="1502.62,-167 1502.62,-189.5 1552.88,-189.5 1552.88,-167 1502.62,-167"/>
<text xml:space="preserve" text-anchor="start" x="1505.62" y="-173.75" font-family="Times New Roman,Times,Liberation Serif,serif" font-size="14.00">Vector3</text>
<polygon fill="none" stroke="black" points="1364.62,-144.5 1364.62,-167 1502.62,-167 1502.62,-144.5 1364.62,-144.5"/>
<text xml:space="preserve" text-anchor="start" x="1367.62" y="-151.25" font-family="Times New Roman,Times,Liberation Serif,serif" font-size="14.00">frequency_filter_cutoff</text>
<polygon fill="none" stroke="black" points="1502.62,-144.5 1502.62,-167 1552.88,-167 1552.88,-144.5 1502.62,-144.5"/>
<text xml:space="preserve" text-anchor="start" x="1515" y="-151.25" font-family="Times New Roman,Times,Liberation Serif,serif" font-size="14.00">float</text>
<polygon fill="none" stroke="black" points="1364.62,-122 1364.62,-144.5 1502.62,-144.5 1502.62,-122 1364.62,-122"/>
<text xml:space="preserve" text-anchor="start" x="1380.38" y="-128.75" font-family="Times New Roman,Times,Liberation Serif,serif" font-size="14.00">velocity_threshold</text>
<polygon fill="none" stroke="black" points="1502.62,-122 1502.62,-144.5 1552.88,-144.5 1552.88,-122 1502.62,-122"/>
<text xml:space="preserve" text-anchor="start" x="1515" y="-128.75" font-family="Times New Roman,Times,Liberation Serif,serif" font-size="14.00">float</text>
</a>
</g>
</g>
<!-- aind_behavior_vr_foraging.task_logic.OperationControl&#45;&gt;aind_behavior_vr_foraging.task_logic.PositionControl -->
<g id="edge9" class="edge">
<title>aind_behavior_vr_foraging.task_logic.OperationControl:e&#45;&gt;aind_behavior_vr_foraging.task_logic.PositionControl:w</title>
<path fill="none" stroke="black" d="M1222.75,-263.22C1278.73,-259.95 1295.16,-228.87 1348.74,-223.91"/>
<polyline fill="none" stroke="black" points="1213,-263.5 1218,-263.36"/>
<polyline fill="none" stroke="black" points="1218,-263.36 1223,-263.21"/>
<polyline fill="none" stroke="black" points="1363.62,-223.25 1358.63,-223.47"/>
<polygon fill="black" stroke="black" points="1357.41,-218.52 1357.85,-228.51 1355.86,-228.6 1355.41,-218.61 1357.41,-218.52"/>
<polyline fill="none" stroke="black" points="1358.63,-223.47 1353.63,-223.7"/>
<polygon fill="black" stroke="black" points="1352.41,-218.75 1352.86,-228.74 1350.86,-228.83 1350.41,-218.84 1352.41,-218.75"/>
<polyline fill="none" stroke="black" points="1353.63,-223.7 1348.64,-223.92"/>
</g>
<!-- aind_behavior_vr_foraging.task_logic.PositionControl&#45;&gt;aind_behavior_services.common.Vector3 -->
<g id="edge10" class="edge">
<title>aind_behavior_vr_foraging.task_logic.PositionControl:e&#45;&gt;aind_behavior_services.common.Vector3:w</title>
<path fill="none" stroke="black" d="M1563.64,-200.65C1610.71,-199.67 1628.39,-191.72 1673.36,-190.24"/>
<polyline fill="none" stroke="black" points="1553.88,-200.75 1558.87,-200.7"/>
<polyline fill="none" stroke="black" points="1558.87,-200.7 1563.87,-200.65"/>
<polyline fill="none" stroke="black" points="1688.25,-190 1683.25,-190.08"/>
<polygon fill="black" stroke="black" points="1682.17,-185.1 1682.33,-195.1 1680.33,-195.13 1680.17,-185.13 1682.17,-185.1"/>
<polyline fill="none" stroke="black" points="1683.25,-190.08 1678.25,-190.16"/>
<polygon fill="black" stroke="black" points="1677.17,-185.18 1677.33,-195.17 1675.33,-195.21 1675.17,-185.21 1677.17,-185.18"/>
<polyline fill="none" stroke="black" points="1678.25,-190.16 1673.25,-190.24"/>
</g>
<!-- aind_behavior_vr_foraging.task_logic.PositionControl&#45;&gt;aind_behavior_services.common.Vector3 -->
<g id="edge11" class="edge">
<title>aind_behavior_vr_foraging.task_logic.PositionControl:e&#45;&gt;aind_behavior_services.common.Vector3:w</title>
<path fill="none" stroke="black" d="M1563.64,-178.36C1610.74,-179.43 1628.36,-188.12 1673.35,-189.74"/>
<polyline fill="none" stroke="black" points="1553.88,-178.25 1558.87,-178.31"/>
<polyline fill="none" stroke="black" points="1558.87,-178.31 1563.87,-178.36"/>
<polyline fill="none" stroke="black" points="1688.25,-190 1683.25,-189.91"/>
<polygon fill="black" stroke="black" points="1682.34,-184.9 1682.16,-194.89 1680.16,-194.86 1680.34,-184.86 1682.34,-184.9"/>
<polyline fill="none" stroke="black" points="1683.25,-189.91 1678.25,-189.83"/>
<polygon fill="black" stroke="black" points="1677.34,-184.81 1677.16,-194.81 1675.16,-194.77 1675.34,-184.77 1677.34,-184.81"/>
<polyline fill="none" stroke="black" points="1678.25,-189.83 1673.25,-189.74"/>
</g>
</g>
</svg>
