<?xml version="1.0" encoding="UTF-8" standalone="no"?>
<svg
   width="38pt"
   height="38pt"
   version="1.1"
   viewBox="0 0 13.405556 13.405556"
   id="svg3633"
   sodipodi:docname="drawing.svg"
   inkscape:version="1.2.2 (732a01da63, 2022-12-09)"
   xmlns:inkscape="http://www.inkscape.org/namespaces/inkscape"
   xmlns:sodipodi="http://sodipodi.sourceforge.net/DTD/sodipodi-0.dtd"
   xmlns="http://www.w3.org/2000/svg"
   xmlns:svg="http://www.w3.org/2000/svg">
  <sodipodi:namedview
     id="namedview3635"
     pagecolor="#ffffff"
     bordercolor="#666666"
     borderopacity="1.0"
     inkscape:showpageshadow="2"
     inkscape:pageopacity="0.0"
     inkscape:pagecheckerboard="0"
     inkscape:deskcolor="#d1d1d1"
     inkscape:document-units="mm"
     showgrid="false"
     inkscape:zoom="7.9601786"
     inkscape:cx="55.023891"
     inkscape:cy="31.657581"
     inkscape:window-width="2560"
     inkscape:window-height="1334"
     inkscape:window-x="-11"
     inkscape:window-y="-11"
     inkscape:window-maximized="1"
     inkscape:current-layer="svg3633" />
  <defs
     id="defs3617">
    <clipPath
       id="clipPath72">
      <path
         transform="translate(-40.22,-76.824)"
         d="M 0,135.294 H 538.971 V 0 H 0 Z"
         id="path3602" />
    </clipPath>
    <clipPath
       id="clipPath70">
      <path
         transform="translate(-33.326,-77.644)"
         d="M 0,135.294 H 538.971 V 0 H 0 Z"
         id="path3605" />
    </clipPath>
    <clipPath
       id="clipPath68">
      <path
         transform="translate(-73.466,-121.77)"
         d="M 0,135.294 H 538.971 V 0 H 0 Z"
         id="path3608" />
    </clipPath>
    <clipPath
       id="clipPath66">
      <path
         transform="translate(-53.715,-32.336)"
         d="M 0,135.294 H 538.971 V 0 H 0 Z"
         id="path3611" />
    </clipPath>
    <clipPath
       id="clipPath64">
      <path
         transform="translate(-41.67,-97.983)"
         d="M 0,135.294 H 538.971 V 0 H 0 Z"
         id="path3614" />
    </clipPath>
  </defs>
  <g
     id="g3631"
     transform="matrix(0.27720025,0,0,0.27720025,-0.03527565,2.3071232)">
    <g
       fill="#4a8bd1"
       fill-rule="evenodd"
       id="g3627">
      <path
         transform="matrix(0.35278,0,0,-0.35278,14.507,5.2123)"
         d="M 0,0 C 13.672,-0.866 24.091,-12.693 23.227,-26.366 22.524,-37.469 12.89,-45.94 1.815,-45.228 c -4.676,0.296 -8.766,2.539 -11.558,5.877 3.216,-11.168 13.256,-22.044 28.043,-24.961 6.123,1.787 11.832,4.908 16.761,9.249 8.836,7.784 14.113,18.544 14.857,30.296 C 51.173,-4.936 41.791,13.148 26.7,23.925 5.75,23.513 -12.282,11.209 -20.907,-6.527 -15.181,-2.016 -7.841,0.492 0,0"
         clip-path="url(#clipPath64)"
         id="path3619" />
      <path
         transform="matrix(0.35278,0,0,-0.35278,18.757,28.371)"
         d="m 0,0 c -14.734,5.447 -27.601,20.116 -25.765,36.617 -6.831,-7.909 -7.419,-16.851 -6.798,-25.525 0.01,-0.021 0.021,-0.042 0.032,-0.062 C -26.632,4.555 -18.324,0.262 -8.913,-0.334 -5.903,-0.522 -2.921,-0.404 0,0"
         clip-path="url(#clipPath66)"
         id="path3621" />
      <path
         transform="matrix(0.35278,0,0,-0.35278,25.724,-3.1795)"
         d="m 0,0 c 13.924,-11.546 22.349,-29.352 21.121,-48.744 -1.29,-20.381 -15.436,-36.941 -34.024,-42.29 -0.056,-0.023 -0.115,-0.032 -0.174,-0.048 -4.076,-1.155 -8.36,-1.782 -12.771,-1.783 -0.997,0 -1.996,0.031 -3.006,0.096 -6.707,0.425 -12.897,2.583 -18.175,5.999 9.888,-12.938 25.472,-21.292 43.013,-21.292 29.886,0 54.113,24.227 54.113,54.113 C 50.097,-25.415 28.008,-2.057 0,0"
         clip-path="url(#clipPath68)"
         id="path3623" />
      <path
         transform="matrix(0.35278,0,0,-0.35278,11.564,12.388)"
         d="m 0,0 c 0.008,0.005 0.016,0.008 0.024,0.013 1.949,1.366 4.315,2.174 6.87,2.174 6.621,0 12.008,-5.387 12.008,-12.008 0,-5.999 -4.426,-10.97 -10.181,-11.854 0.533,-0.1 1.073,-0.179 1.628,-0.214 9.469,-0.581 17.622,6.604 18.221,16.053 0.76,12.017 -8.399,22.414 -20.416,23.175 -9.451,0.599 -18.106,-3.646 -23.548,-10.59 -1.679,-5.224 -2.595,-10.789 -2.595,-16.57 0,-5.896 0.956,-11.565 2.699,-16.878 0.501,9.231 3.774,18.83 15.29,26.699"
         clip-path="url(#clipPath70)"
         id="path3625" />
    </g>
    <path
       transform="matrix(0.35278,0,0,-0.35278,13.996,12.677)"
       d="m 0,0 c -4.964,0 -9.002,-4.038 -9.002,-9.002 0,-4.964 4.038,-9.001 9.002,-9.001 4.964,0 9.001,4.037 9.001,9.001 C 9.001,-4.038 4.964,0 0,0"
       clip-path="url(#clipPath72)"
       fill="#192b49"
       id="path3629" />
  </g>
</svg>
