<?xml version="1.0" encoding="UTF-8" standalone="no"?>
<!DOCTYPE svg PUBLIC "-//W3C//DTD SVG 1.1//EN"
 "http://www.w3.org/Graphics/SVG/1.1/DTD/svg11.dtd">
<!-- Generated by graphviz version 2.43.0 (0)
 -->
<!-- Title: root Pages: 1 -->
<svg width="3384pt" height="610pt"
 viewBox="0.00 0.00 3384.00 610.00" xmlns="http://www.w3.org/2000/svg" xmlns:xlink="http://www.w3.org/1999/xlink">
<g id="graph0" class="graph" transform="scale(1 1) rotate(0) translate(4 606)">
<title>root</title>
<polygon fill="white" stroke="transparent" points="-4,4 -4,-606 3380,-606 3380,4 -4,4"/>
<g id="clust1" class="cluster">
<title>cluster_curriculum</title>
<polygon fill="none" stroke="white" points="8,-8 8,-594 2094,-594 2094,-8 8,-8"/>
<text text-anchor="middle" x="1051" y="-570.8" font-family="Times,serif" font-size="24.00">Depletion</text>
</g>
<g id="clust2" class="cluster">
<title>cluster_one_odor_no_depletion</title>
<polygon fill="none" stroke="black" points="2102,-508 2102,-583 3368,-583 3368,-508 2102,-508"/>
<text text-anchor="middle" x="2735" y="-567.8" font-family="Times,serif" font-size="14.00">one_odor_no_depletion</text>
</g>
<!-- 0 -->
<g id="node1" class="node">
<title>0</title>
<polygon fill="lightgrey" stroke="black" points="1157.5,-552 978.5,-552 978.5,-516 1157.5,-516 1157.5,-552"/>
<text text-anchor="middle" x="1068" y="-530.3" font-family="Times,serif" font-size="14.00">one_odor_no_depletion</text>
</g>
<!-- 1 -->
<g id="node2" class="node">
<title>1</title>
<polygon fill="lightgrey" stroke="black" points="1178.5,-427 957.5,-427 957.5,-391 1178.5,-391 1178.5,-427"/>
<text text-anchor="middle" x="1068" y="-405.3" font-family="Times,serif" font-size="14.00">one_odor_w_depletion_day_0</text>
</g>
<!-- 0&#45;&gt;1 -->
<g id="edge1" class="edge">
<title>0&#45;&gt;1</title>
<path fill="none" stroke="black" d="M1068,-515.9C1068,-495.63 1068,-461.6 1068,-437.59"/>
<polygon fill="black" stroke="black" points="1071.5,-437.35 1068,-427.35 1064.5,-437.35 1071.5,-437.35"/>
<text text-anchor="middle" x="1545.5" y="-467.8" font-family="Times,serif" font-size="14.00">(1) aind_behavior_vr_foraging_curricula.depletion.curriculum.st_s_stage_one_odor_no_depletion_s_stage_one_odor_w_depletion_day_0</text>
</g>
<!-- 2 -->
<g id="node3" class="node">
<title>2</title>
<polygon fill="lightgrey" stroke="black" points="313.5,-302 92.5,-302 92.5,-266 313.5,-266 313.5,-302"/>
<text text-anchor="middle" x="203" y="-280.3" font-family="Times,serif" font-size="14.00">one_odor_w_depletion_day_1</text>
</g>
<!-- 1&#45;&gt;2 -->
<g id="edge2" class="edge">
<title>1&#45;&gt;2</title>
<path fill="none" stroke="black" d="M957.02,-406.18C699.13,-401.4 78.89,-386.57 48,-354 26.46,-331.29 49.51,-315.55 83.84,-304.9"/>
<polygon fill="black" stroke="black" points="85.15,-308.16 93.79,-302.03 83.21,-301.43 85.15,-308.16"/>
<text text-anchor="middle" x="547" y="-342.8" font-family="Times,serif" font-size="14.00">(1) aind_behavior_vr_foraging_curricula.depletion.curriculum.st_s_stage_one_odor_w_depletion_day_0_s_stage_one_odor_w_depletion_day_1</text>
</g>
<!-- 3 -->
<g id="node4" class="node">
<title>3</title>
<polygon fill="lightgrey" stroke="black" points="755.5,-177 600.5,-177 600.5,-141 755.5,-141 755.5,-177"/>
<text text-anchor="middle" x="678" y="-155.3" font-family="Times,serif" font-size="14.00">all_odors_rewarded</text>
</g>
<!-- 1&#45;&gt;3 -->
<g id="edge3" class="edge">
<title>1&#45;&gt;3</title>
<path fill="none" stroke="black" d="M1178.83,-408.82C1449.5,-409.8 2118.05,-405.56 2060,-339 1974.45,-240.91 1056.15,-181.24 765.61,-164.72"/>
<polygon fill="black" stroke="black" points="765.72,-161.22 755.54,-164.15 765.33,-168.21 765.72,-161.22"/>
<text text-anchor="middle" x="2451" y="-280.3" font-family="Times,serif" font-size="14.00">(2) aind_behavior_vr_foraging_curricula.depletion.curriculum.st_s_stage_one_odor_w_depletion_day_0_s_stage_all_odors_rewarded</text>
</g>
<!-- 2&#45;&gt;1 -->
<g id="edge4" class="edge">
<title>2&#45;&gt;1</title>
<path fill="none" stroke="black" d="M313.77,-285.24C529.44,-286.69 989.62,-294.97 1046,-339 1058.6,-348.84 1064.11,-365.92 1066.47,-380.63"/>
<polygon fill="black" stroke="black" points="1063.02,-381.27 1067.68,-390.78 1069.97,-380.44 1063.02,-381.27"/>
<text text-anchor="middle" x="1557" y="-342.8" font-family="Times,serif" font-size="14.00">(1) aind_behavior_vr_foraging_curricula.depletion.curriculum.st_s_stage_one_odor_w_depletion_day_1_s_stage_one_odor_w_depletion_day_0</text>
</g>
<!-- 2&#45;&gt;3 -->
<g id="edge5" class="edge">
<title>2&#45;&gt;3</title>
<path fill="none" stroke="black" d="M201.32,-265.85C200.81,-250 202.88,-226.99 217,-214 243.89,-189.27 464,-172.48 590.1,-164.79"/>
<polygon fill="black" stroke="black" points="590.36,-168.28 600.13,-164.18 589.94,-161.29 590.36,-168.28"/>
<text text-anchor="middle" x="683" y="-217.8" font-family="Times,serif" font-size="14.00">(2) aind_behavior_vr_foraging_curricula.depletion.curriculum.st_s_stage_one_odor_w_depletion_day_1_s_stage_all_odors_rewarded</text>
</g>
<!-- 4 -->
<g id="node5" class="node">
<title>4</title>
<polygon fill="lightgrey" stroke="black" points="725.5,-52 630.5,-52 630.5,-16 725.5,-16 725.5,-52"/>
<text text-anchor="middle" x="678" y="-30.3" font-family="Times,serif" font-size="14.00">graduation</text>
</g>
<!-- 3&#45;&gt;4 -->
<g id="edge6" class="edge">
<title>3&#45;&gt;4</title>
<path fill="none" stroke="black" d="M678,-140.9C678,-120.63 678,-86.6 678,-62.59"/>
<polygon fill="black" stroke="black" points="681.5,-62.35 678,-52.35 674.5,-62.35 681.5,-62.35"/>
<text text-anchor="middle" x="1080.5" y="-92.8" font-family="Times,serif" font-size="14.00">(1) aind_behavior_vr_foraging_curricula.depletion.curriculum.st_s_stage_all_odors_rewarded_s_stage_graduation</text>
</g>
<!-- 0_gv1 -->
<g id="node6" class="node">
<title>0_gv1</title>
<polygon fill="#ffea00" stroke="black" points="3359.5,-552 2966.5,-552 2966.5,-516 3359.5,-516 3359.5,-552"/>
<text text-anchor="middle" x="3163" y="-530.9" font-family="Arial" font-size="12.00">aind_behavior_vr_foraging_curricula.depletion.policies.p_learn_to_run</text>
</g>
<!-- 1_gv1 -->
<g id="node7" class="node">
<title>1_gv1</title>
<polygon fill="#ffea00" stroke="black" points="2948,-552 2550,-552 2550,-516 2948,-516 2948,-552"/>
<text text-anchor="middle" x="2749" y="-530.9" font-family="Arial" font-size="12.00">aind_behavior_vr_foraging_curricula.depletion.policies.p_learn_to_stop</text>
</g>
<!-- 2_gv1 -->
<g id="node8" class="node">
<title>2_gv1</title>
<polygon fill="#ffea00" stroke="black" points="2532,-552 2110,-552 2110,-516 2532,-516 2532,-552"/>
<text text-anchor="middle" x="2321" y="-530.9" font-family="Arial" font-size="12.00">aind_behavior_vr_foraging_curricula.depletion.policies.p_stochastic_reward</text>
</g>
</g>
</svg>
