<?xml version="1.0" encoding="UTF-8" standalone="no"?>
<!DOCTYPE svg PUBLIC "-//W3C//DTD SVG 1.1//EN"
 "http://www.w3.org/Graphics/SVG/1.1/DTD/svg11.dtd">
<!-- Generated by graphviz version 2.43.0 (0)
 -->
<!-- Title: root Pages: 1 -->
<svg width="2287pt" height="485pt"
 viewBox="0.00 0.00 2287.00 485.00" xmlns="http://www.w3.org/2000/svg" xmlns:xlink="http://www.w3.org/1999/xlink">
<g id="graph0" class="graph" transform="scale(1 1) rotate(0) translate(4 481)">
<title>root</title>
<polygon fill="white" stroke="transparent" points="-4,4 -4,-481 2283,-481 2283,4 -4,4"/>
<g id="clust1" class="cluster">
<title>cluster_curriculum</title>
<polygon fill="none" stroke="white" points="8,-8 8,-469 997,-469 997,-8 8,-8"/>
<text text-anchor="middle" x="502.5" y="-445.8" font-family="Times,serif" font-size="24.00">DeterministicReversals</text>
</g>
<g id="clust2" class="cluster">
<title>cluster_one_odor_no_depletion</title>
<polygon fill="none" stroke="black" points="1005,-383 1005,-458 2271,-458 2271,-383 1005,-383"/>
<text text-anchor="middle" x="1638" y="-442.8" font-family="Times,serif" font-size="14.00">one_odor_no_depletion</text>
</g>
<!-- 0 -->
<g id="node1" class="node">
<title>0</title>
<polygon fill="lightgrey" stroke="black" points="195.5,-427 16.5,-427 16.5,-391 195.5,-391 195.5,-427"/>
<text text-anchor="middle" x="106" y="-405.3" font-family="Times,serif" font-size="14.00">one_odor_no_depletion</text>
</g>
<!-- 1 -->
<g id="node2" class="node">
<title>1</title>
<polygon fill="lightgrey" stroke="black" points="236.5,-302 15.5,-302 15.5,-266 236.5,-266 236.5,-302"/>
<text text-anchor="middle" x="126" y="-280.3" font-family="Times,serif" font-size="14.00">one_odor_w_depletion_day_0</text>
</g>
<!-- 0&#45;&gt;1 -->
<g id="edge1" class="edge">
<title>0&#45;&gt;1</title>
<path fill="none" stroke="black" d="M108.78,-390.9C112.09,-370.54 117.66,-336.29 121.57,-312.27"/>
<polygon fill="black" stroke="black" points="125.03,-312.79 123.18,-302.35 118.12,-311.66 125.03,-312.79"/>
<text text-anchor="middle" x="593.5" y="-342.8" font-family="Times,serif" font-size="14.00">(1) aind_behavior_vr_foraging_curricula.depletion.curriculum.st_s_stage_one_odor_no_depletion_s_stage_one_odor_w_depletion_day_0</text>
</g>
<!-- 2 -->
<g id="node3" class="node">
<title>2</title>
<polygon fill="lightgrey" stroke="black" points="171.5,-177 16.5,-177 16.5,-141 171.5,-141 171.5,-177"/>
<text text-anchor="middle" x="94" y="-155.3" font-family="Times,serif" font-size="14.00">all_odors_rewarded</text>
</g>
<!-- 1&#45;&gt;2 -->
<g id="edge2" class="edge">
<title>1&#45;&gt;2</title>
<path fill="none" stroke="black" d="M121.55,-265.9C116.25,-245.54 107.34,-211.29 101.09,-187.27"/>
<polygon fill="black" stroke="black" points="104.42,-186.15 98.51,-177.35 97.65,-187.91 104.42,-186.15"/>
<text text-anchor="middle" x="577" y="-217.8" font-family="Times,serif" font-size="14.00">(1) aind_behavior_vr_foraging_curricula.depletion.curriculum.st_s_stage_one_odor_w_depletion_day_0_s_stage_all_odors_rewarded</text>
</g>
<!-- 3 -->
<g id="node4" class="node">
<title>3</title>
<polygon fill="lightgrey" stroke="black" points="141.5,-52 46.5,-52 46.5,-16 141.5,-16 141.5,-52"/>
<text text-anchor="middle" x="94" y="-30.3" font-family="Times,serif" font-size="14.00">graduation</text>
</g>
<!-- 2&#45;&gt;3 -->
<g id="edge3" class="edge">
<title>2&#45;&gt;3</title>
<path fill="none" stroke="black" d="M94,-140.9C94,-120.63 94,-86.6 94,-62.59"/>
<polygon fill="black" stroke="black" points="97.5,-62.35 94,-52.35 90.5,-62.35 97.5,-62.35"/>
<text text-anchor="middle" x="496.5" y="-92.8" font-family="Times,serif" font-size="14.00">(1) aind_behavior_vr_foraging_curricula.depletion.curriculum.st_s_stage_all_odors_rewarded_s_stage_graduation</text>
</g>
<!-- 0_gv1 -->
<g id="node5" class="node">
<title>0_gv1</title>
<polygon fill="#ffea00" stroke="black" points="2262.5,-427 1869.5,-427 1869.5,-391 2262.5,-391 2262.5,-427"/>
<text text-anchor="middle" x="2066" y="-405.9" font-family="Arial" font-size="12.00">aind_behavior_vr_foraging_curricula.depletion.policies.p_learn_to_run</text>
</g>
<!-- 1_gv1 -->
<g id="node6" class="node">
<title>1_gv1</title>
<polygon fill="#ffea00" stroke="black" points="1851,-427 1453,-427 1453,-391 1851,-391 1851,-427"/>
<text text-anchor="middle" x="1652" y="-405.9" font-family="Arial" font-size="12.00">aind_behavior_vr_foraging_curricula.depletion.policies.p_learn_to_stop</text>
</g>
<!-- 2_gv1 -->
<g id="node7" class="node">
<title>2_gv1</title>
<polygon fill="#ffea00" stroke="black" points="1435,-427 1013,-427 1013,-391 1435,-391 1435,-427"/>
<text text-anchor="middle" x="1224" y="-405.9" font-family="Arial" font-size="12.00">aind_behavior_vr_foraging_curricula.depletion.policies.p_stochastic_reward</text>
</g>
</g>
</svg>
