<?xml version="1.0" encoding="UTF-8" standalone="no"?>
<!DOCTYPE svg PUBLIC "-//W3C//DTD SVG 1.1//EN"
 "http://www.w3.org/Graphics/SVG/1.1/DTD/svg11.dtd">
<!-- Generated by graphviz version 2.43.0 (0)
 -->
<!-- Title: root Pages: 1 -->
<svg width="3531pt" height="235pt"
 viewBox="0.00 0.00 3531.00 235.00" xmlns="http://www.w3.org/2000/svg" xmlns:xlink="http://www.w3.org/1999/xlink">
<g id="graph0" class="graph" transform="scale(1 1) rotate(0) translate(4 231)">
<title>root</title>
<polygon fill="white" stroke="transparent" points="-4,4 -4,-231 3527,-231 3527,4 -4,4"/>
<g id="clust1" class="cluster">
<title>cluster_curriculum</title>
<polygon fill="none" stroke="white" points="8,-8 8,-219 690,-219 690,-8 8,-8"/>
<text text-anchor="middle" x="349" y="-195.8" font-family="Times,serif" font-size="24.00">LearningSets</text>
</g>
<g id="clust2" class="cluster">
<title>cluster_shaping</title>
<polygon fill="none" stroke="black" points="698,-133 698,-208 2587,-208 2587,-133 698,-133"/>
<text text-anchor="middle" x="1642.5" y="-192.8" font-family="Times,serif" font-size="14.00">shaping</text>
</g>
<g id="clust3" class="cluster">
<title>cluster_graduated</title>
<polygon fill="none" stroke="black" points="2595,-133 2595,-208 3515,-208 3515,-133 2595,-133"/>
<text text-anchor="middle" x="3055" y="-192.8" font-family="Times,serif" font-size="14.00">graduated</text>
</g>
<!-- 0 -->
<g id="node1" class="node">
<title>0</title>
<polygon fill="lightgrey" stroke="black" points="89.5,-177 16.5,-177 16.5,-141 89.5,-141 89.5,-177"/>
<text text-anchor="middle" x="53" y="-155.3" font-family="Times,serif" font-size="14.00">shaping</text>
</g>
<!-- 1 -->
<g id="node2" class="node">
<title>1</title>
<polygon fill="lightgrey" stroke="black" points="106,-52 16,-52 16,-16 106,-16 106,-52"/>
<text text-anchor="middle" x="61" y="-30.3" font-family="Times,serif" font-size="14.00">graduated</text>
</g>
<!-- 0&#45;&gt;1 -->
<g id="edge1" class="edge">
<title>0&#45;&gt;1</title>
<path fill="none" stroke="black" d="M54.11,-140.9C55.43,-120.63 57.64,-86.6 59.21,-62.59"/>
<polygon fill="black" stroke="black" points="62.71,-62.56 59.87,-52.35 55.73,-62.11 62.71,-62.56"/>
<text text-anchor="middle" x="381" y="-92.8" font-family="Times,serif" font-size="14.00">(1) aind_behavior_vr_foraging_curricula.learning_sets.curriculum.st_shaping_to_graduated</text>
</g>
<!-- 0_gv1 -->
<g id="node3" class="node">
<title>0_gv1</title>
<polygon fill="#ffea00" stroke="black" points="2579,-177 2097,-177 2097,-141 2579,-141 2579,-177"/>
<text text-anchor="middle" x="2338" y="-155.9" font-family="Arial" font-size="12.00">aind_behavior_vr_foraging_curricula.learning_sets.policies.p_introduce_negative_sites</text>
</g>
<!-- 1_gv1 -->
<g id="node4" class="node">
<title>1_gv1</title>
<polygon fill="#ffea00" stroke="black" points="2079.5,-177 1628.5,-177 1628.5,-141 2079.5,-141 2079.5,-177"/>
<text text-anchor="middle" x="1854" y="-155.9" font-family="Arial" font-size="12.00">aind_behavior_vr_foraging_curricula.learning_sets.policies.p_seed_stop_velocity</text>
</g>
<!-- 2 -->
<g id="node5" class="node">
<title>2</title>
<polygon fill="#ffea00" stroke="black" points="1610,-177 1156,-177 1156,-141 1610,-141 1610,-177"/>
<text text-anchor="middle" x="1383" y="-155.9" font-family="Arial" font-size="12.00">aind_behavior_vr_foraging_curricula.learning_sets.policies.p_seed_stop_duration</text>
</g>
<!-- 3 -->
<g id="node6" class="node">
<title>3</title>
<polygon fill="#ffea00" stroke="black" points="1137.5,-177 706.5,-177 706.5,-141 1137.5,-141 1137.5,-177"/>
<text text-anchor="middle" x="922" y="-155.9" font-family="Arial" font-size="12.00">aind_behavior_vr_foraging_curricula.learning_sets.policies.p_ease_geometry</text>
</g>
<!-- 0_gv2 -->
<g id="node7" class="node">
<title>0_gv2</title>
<polygon fill="#ffea00" stroke="black" points="3507,-177 3025,-177 3025,-141 3507,-141 3507,-177"/>
<text text-anchor="middle" x="3266" y="-155.9" font-family="Arial" font-size="12.00">aind_behavior_vr_foraging_curricula.learning_sets.policies.p_introduce_negative_sites</text>
</g>
<!-- 1_gv2 -->
<g id="node8" class="node">
<title>1_gv2</title>
<polygon fill="#ffea00" stroke="black" points="3007,-177 2603,-177 2603,-141 3007,-141 3007,-177"/>
<text text-anchor="middle" x="2805" y="-155.9" font-family="Arial" font-size="12.00">aind_behavior_vr_foraging_curricula.learning_sets.policies.p_water_cap</text>
</g>
</g>
</svg>
