<?xml version="1.0" encoding="UTF-8" standalone="no"?>
<!DOCTYPE svg PUBLIC "-//W3C//DTD SVG 1.1//EN"
 "http://www.w3.org/Graphics/SVG/1.1/DTD/svg11.dtd">
<!-- Generated by graphviz version 2.43.0 (0)
 -->
<!-- Title: root Pages: 1 -->
<svg width="3978pt" height="485pt"
 viewBox="0.00 0.00 3978.00 485.00" xmlns="http://www.w3.org/2000/svg" xmlns:xlink="http://www.w3.org/1999/xlink">
<g id="graph0" class="graph" transform="scale(1 1) rotate(0) translate(4 481)">
<title>root</title>
<polygon fill="white" stroke="transparent" points="-4,4 -4,-481 3974,-481 3974,4 -4,4"/>
<g id="clust1" class="cluster">
<title>cluster_curriculum</title>
<polygon fill="none" stroke="white" points="8,-8 8,-469 2074,-469 2074,-8 8,-8"/>
<text text-anchor="middle" x="1041" y="-445.8" font-family="Times,serif" font-size="24.00">ReplenishmentDepletionOffset</text>
</g>
<g id="clust2" class="cluster">
<title>cluster_one_odor_no_depletion</title>
<polygon fill="none" stroke="black" points="2082,-383 2082,-458 3348,-458 3348,-383 2082,-383"/>
<text text-anchor="middle" x="2715" y="-442.8" font-family="Times,serif" font-size="14.00">one_odor_no_depletion</text>
</g>
<g id="clust3" class="cluster">
<title>cluster_mcm_final_stage</title>
<polygon fill="none" stroke="black" points="3356,-383 3356,-458 3962,-458 3962,-383 3356,-383"/>
<text text-anchor="middle" x="3659" y="-442.8" font-family="Times,serif" font-size="14.00">mcm_final_stage</text>
</g>
<!-- 0 -->
<g id="node1" class="node">
<title>0</title>
<polygon fill="lightgrey" stroke="black" points="686.5,-427 507.5,-427 507.5,-391 686.5,-391 686.5,-427"/>
<text text-anchor="middle" x="597" y="-405.3" font-family="Times,serif" font-size="14.00">one_odor_no_depletion</text>
</g>
<!-- 1 -->
<g id="node2" class="node">
<title>1</title>
<polygon fill="lightgrey" stroke="black" points="707.5,-302 486.5,-302 486.5,-266 707.5,-266 707.5,-302"/>
<text text-anchor="middle" x="597" y="-280.3" font-family="Times,serif" font-size="14.00">one_odor_w_depletion_day_0</text>
</g>
<!-- 0&#45;&gt;1 -->
<g id="edge1" class="edge">
<title>0&#45;&gt;1</title>
<path fill="none" stroke="black" d="M597,-390.9C597,-370.63 597,-336.6 597,-312.59"/>
<polygon fill="black" stroke="black" points="600.5,-312.35 597,-302.35 593.5,-312.35 600.5,-312.35"/>
<text text-anchor="middle" x="1074.5" y="-342.8" font-family="Times,serif" font-size="14.00">(1) aind_behavior_vr_foraging_curricula.depletion.curriculum.st_s_stage_one_odor_no_depletion_s_stage_one_odor_w_depletion_day_0</text>
</g>
<!-- 2 -->
<g id="node3" class="node">
<title>2</title>
<polygon fill="lightgrey" stroke="black" points="707.5,-177 486.5,-177 486.5,-141 707.5,-141 707.5,-177"/>
<text text-anchor="middle" x="597" y="-155.3" font-family="Times,serif" font-size="14.00">one_odor_w_depletion_day_1</text>
</g>
<!-- 1&#45;&gt;2 -->
<g id="edge2" class="edge">
<title>1&#45;&gt;2</title>
<path fill="none" stroke="black" d="M486.32,-279.92C334.44,-274.54 76.82,-260.8 48,-229 43.52,-224.06 43.52,-218.94 48,-214 76.18,-182.92 322.99,-169.09 475.93,-163.45"/>
<polygon fill="black" stroke="black" points="476.46,-166.94 486.32,-163.08 476.2,-159.94 476.46,-166.94"/>
<text text-anchor="middle" x="547" y="-217.8" font-family="Times,serif" font-size="14.00">(1) aind_behavior_vr_foraging_curricula.depletion.curriculum.st_s_stage_one_odor_w_depletion_day_0_s_stage_one_odor_w_depletion_day_1</text>
</g>
<!-- 2&#45;&gt;1 -->
<g id="edge3" class="edge">
<title>2&#45;&gt;1</title>
<path fill="none" stroke="black" d="M707.76,-160.65C855.32,-163.53 1092.77,-176.27 1046,-229 1024.46,-253.29 843.33,-268.73 717.82,-276.62"/>
<polygon fill="black" stroke="black" points="717.51,-273.13 707.75,-277.25 717.95,-280.12 717.51,-273.13"/>
<text text-anchor="middle" x="1550" y="-217.8" font-family="Times,serif" font-size="14.00">(1) aind_behavior_vr_foraging_curricula.depletion.curriculum.st_s_stage_one_odor_w_depletion_day_1_s_stage_one_odor_w_depletion_day_0</text>
</g>
<!-- 3 -->
<g id="node4" class="node">
<title>3</title>
<polygon fill="lightgrey" stroke="black" points="664,-52 530,-52 530,-16 664,-16 664,-52"/>
<text text-anchor="middle" x="597" y="-30.3" font-family="Times,serif" font-size="14.00">mcm_final_stage</text>
</g>
<!-- 2&#45;&gt;3 -->
<g id="edge4" class="edge">
<title>2&#45;&gt;3</title>
<path fill="none" stroke="black" d="M597,-140.9C597,-120.63 597,-86.6 597,-62.59"/>
<polygon fill="black" stroke="black" points="600.5,-62.35 597,-52.35 593.5,-62.35 600.5,-62.35"/>
<text text-anchor="middle" x="1063" y="-92.8" font-family="Times,serif" font-size="14.00">(2) aind_behavior_vr_foraging_curricula.depletion.curriculum.st_s_stage_one_odor_w_depletion_day_1_s_stage_all_odors_rewarded</text>
</g>
<!-- 0_gv1 -->
<g id="node5" class="node">
<title>0_gv1</title>
<polygon fill="#ffea00" stroke="black" points="3339.5,-427 2946.5,-427 2946.5,-391 3339.5,-391 3339.5,-427"/>
<text text-anchor="middle" x="3143" y="-405.9" font-family="Arial" font-size="12.00">aind_behavior_vr_foraging_curricula.depletion.policies.p_learn_to_run</text>
</g>
<!-- 1_gv1 -->
<g id="node6" class="node">
<title>1_gv1</title>
<polygon fill="#ffea00" stroke="black" points="2928,-427 2530,-427 2530,-391 2928,-391 2928,-427"/>
<text text-anchor="middle" x="2729" y="-405.9" font-family="Arial" font-size="12.00">aind_behavior_vr_foraging_curricula.depletion.policies.p_learn_to_stop</text>
</g>
<!-- 2_gv1 -->
<g id="node7" class="node">
<title>2_gv1</title>
<polygon fill="#ffea00" stroke="black" points="2512,-427 2090,-427 2090,-391 2512,-391 2512,-427"/>
<text text-anchor="middle" x="2301" y="-405.9" font-family="Arial" font-size="12.00">aind_behavior_vr_foraging_curricula.depletion.policies.p_stochastic_reward</text>
</g>
<!-- 0_gv2 -->
<g id="node8" class="node">
<title>0_gv2</title>
<polygon fill="#ffea00" stroke="black" points="3954,-427 3364,-427 3364,-391 3954,-391 3954,-427"/>
<text text-anchor="middle" x="3659" y="-405.9" font-family="Arial" font-size="12.00">aind_behavior_vr_foraging_curricula.replenishment_depletion_offset.policies.p_update_replenishment_rate</text>
</g>
</g>
</svg>
