<?xml version="1.0" encoding="UTF-8" standalone="no"?>
<!DOCTYPE svg PUBLIC "-//W3C//DTD SVG 1.1//EN"
 "http://www.w3.org/Graphics/SVG/1.1/DTD/svg11.dtd">
<!-- Generated by graphviz version 2.43.0 (0)
 -->
<!-- Title: root Pages: 1 -->
<svg width="2754pt" height="485pt"
 viewBox="0.00 0.00 2754.00 485.00" xmlns="http://www.w3.org/2000/svg" xmlns:xlink="http://www.w3.org/1999/xlink">
<g id="graph0" class="graph" transform="scale(1 1) rotate(0) translate(4 481)">
<title>root</title>
<polygon fill="white" stroke="transparent" points="-4,4 -4,-481 2750,-481 2750,4 -4,4"/>
<g id="clust1" class="cluster">
<title>cluster_probability_grid_short_delay</title>
<polygon fill="none" stroke="black" points="8,-383 8,-458 464,-458 464,-383 8,-383"/>
<text text-anchor="middle" x="236" y="-442.8" font-family="Times,serif" font-size="14.00">probability_grid_short_delay</text>
</g>
<g id="clust2" class="cluster">
<title>cluster_curriculum</title>
<polygon fill="none" stroke="white" points="472,-8 472,-469 1433,-469 1433,-8 472,-8"/>
<text text-anchor="middle" x="952.5" y="-445.8" font-family="Times,serif" font-size="24.00">SingleSite</text>
</g>
<g id="clust3" class="cluster">
<title>cluster_learn_to_stop</title>
<polygon fill="none" stroke="black" points="1441,-383 1441,-458 2738,-458 2738,-383 1441,-383"/>
<text text-anchor="middle" x="2089.5" y="-442.8" font-family="Times,serif" font-size="14.00">learn_to_stop</text>
</g>
<!-- 0_gv2 -->
<g id="node1" class="node">
<title>0_gv2</title>
<polygon fill="#ffea00" stroke="black" points="456,-427 16,-427 16,-391 456,-391 456,-427"/>
<text text-anchor="middle" x="236" y="-405.9" font-family="Arial" font-size="12.00">aind_behavior_vr_foraging_curricula.single_site.policies.p_seed_reward_delay</text>
</g>
<!-- 0 -->
<g id="node2" class="node">
<title>0</title>
<polygon fill="lightgrey" stroke="black" points="637,-427 525,-427 525,-391 637,-391 637,-427"/>
<text text-anchor="middle" x="581" y="-405.3" font-family="Times,serif" font-size="14.00">learn_to_stop</text>
</g>
<!-- 1 -->
<g id="node3" class="node">
<title>1</title>
<polygon fill="lightgrey" stroke="black" points="646,-302 516,-302 516,-266 646,-266 646,-302"/>
<text text-anchor="middle" x="581" y="-280.3" font-family="Times,serif" font-size="14.00">learn_to_choose</text>
</g>
<!-- 0&#45;&gt;1 -->
<g id="edge1" class="edge">
<title>0&#45;&gt;1</title>
<path fill="none" stroke="black" d="M581,-390.9C581,-370.63 581,-336.6 581,-312.59"/>
<polygon fill="black" stroke="black" points="584.5,-312.35 581,-302.35 577.5,-312.35 584.5,-312.35"/>
<text text-anchor="middle" x="949" y="-342.8" font-family="Times,serif" font-size="14.00">(1) aind_behavior_vr_foraging_curricula.single_site.curriculum.st_s_learn_to_stop_to_s_learn_to_choose</text>
</g>
<!-- 2 -->
<g id="node4" class="node">
<title>2</title>
<polygon fill="lightgrey" stroke="black" points="700,-177 480,-177 480,-141 700,-141 700,-177"/>
<text text-anchor="middle" x="590" y="-155.3" font-family="Times,serif" font-size="14.00">probability_grid_short_delay</text>
</g>
<!-- 1&#45;&gt;2 -->
<g id="edge2" class="edge">
<title>1&#45;&gt;2</title>
<path fill="none" stroke="black" d="M582.25,-265.9C583.73,-245.63 586.22,-211.6 587.98,-187.59"/>
<polygon fill="black" stroke="black" points="591.49,-187.58 588.73,-177.35 584.51,-187.07 591.49,-187.58"/>
<text text-anchor="middle" x="1007" y="-217.8" font-family="Times,serif" font-size="14.00">(1) aind_behavior_vr_foraging_curricula.single_site.curriculum.st_s_learn_to_choose_to_s_probability_grid_short_delay</text>
</g>
<!-- 3 -->
<g id="node5" class="node">
<title>3</title>
<polygon fill="lightgrey" stroke="black" points="692.5,-52 479.5,-52 479.5,-16 692.5,-16 692.5,-52"/>
<text text-anchor="middle" x="586" y="-30.3" font-family="Times,serif" font-size="14.00">probability_grid_long_delay</text>
</g>
<!-- 2&#45;&gt;3 -->
<g id="edge3" class="edge">
<title>2&#45;&gt;3</title>
<path fill="none" stroke="black" d="M589.44,-140.9C588.78,-120.63 587.68,-86.6 586.9,-62.59"/>
<polygon fill="black" stroke="black" points="590.39,-62.23 586.56,-52.35 583.39,-62.46 590.39,-62.23"/>
<text text-anchor="middle" x="1051.5" y="-92.8" font-family="Times,serif" font-size="14.00">(1) aind_behavior_vr_foraging_curricula.single_site.curriculum.st_s_probability_grid_short_delay_to_s_probability_grid_long_delay</text>
</g>
<!-- 0_gv1 -->
<g id="node6" class="node">
<title>0_gv1</title>
<polygon fill="#ffea00" stroke="black" points="2729.5,-427 2322.5,-427 2322.5,-391 2729.5,-391 2729.5,-427"/>
<text text-anchor="middle" x="2526" y="-405.9" font-family="Arial" font-size="12.00">aind_behavior_vr_foraging_curricula.single_site.policies.p_learn_to_stop</text>
</g>
<!-- 1_gv1 -->
<g id="node7" class="node">
<title>1_gv1</title>
<polygon fill="#ffea00" stroke="black" points="2304.5,-427 1867.5,-427 1867.5,-391 2304.5,-391 2304.5,-427"/>
<text text-anchor="middle" x="2086" y="-405.9" font-family="Arial" font-size="12.00">aind_behavior_vr_foraging_curricula.single_site.policies.p_reward_water_gate</text>
</g>
<!-- 2_gv1 -->
<g id="node8" class="node">
<title>2_gv1</title>
<polygon fill="#ffea00" stroke="black" points="1849.5,-427 1448.5,-427 1448.5,-391 1849.5,-391 1849.5,-427"/>
<text text-anchor="middle" x="1649" y="-405.9" font-family="Arial" font-size="12.00">aind_behavior_vr_foraging_curricula.single_site.policies.p_learn_to_run</text>
</g>
</g>
</svg>
