<?xml version="1.0" encoding="UTF-8" standalone="no"?>
<!DOCTYPE svg PUBLIC "-//W3C//DTD SVG 1.1//EN"
 "http://www.w3.org/Graphics/SVG/1.1/DTD/svg11.dtd">
<!-- Generated by graphviz version 2.43.0 (0)
 -->
<!-- Title: root Pages: 1 -->
<svg width="1129pt" height="235pt"
 viewBox="0.00 0.00 1129.00 235.00" xmlns="http://www.w3.org/2000/svg" xmlns:xlink="http://www.w3.org/1999/xlink">
<g id="graph0" class="graph" transform="scale(1 1) rotate(0) translate(4 231)">
<title>root</title>
<polygon fill="white" stroke="transparent" points="-4,4 -4,-231 1125,-231 1125,4 -4,4"/>
<g id="clust1" class="cluster">
<title>cluster_curriculum</title>
<polygon fill="none" stroke="white" points="8,-8 8,-219 645,-219 645,-8 8,-8"/>
<text text-anchor="middle" x="326.5" y="-195.8" font-family="Times,serif" font-size="24.00">TemplateCurriculum</text>
</g>
<g id="clust2" class="cluster">
<title>cluster_stage_a</title>
<polygon fill="none" stroke="black" points="653,-133 653,-208 1113,-208 1113,-133 653,-133"/>
<text text-anchor="middle" x="883" y="-192.8" font-family="Times,serif" font-size="14.00">stage_a</text>
</g>
<!-- 0 -->
<g id="node1" class="node">
<title>0</title>
<polygon fill="lightgrey" stroke="black" points="87.5,-177 16.5,-177 16.5,-141 87.5,-141 87.5,-177"/>
<text text-anchor="middle" x="52" y="-155.3" font-family="Times,serif" font-size="14.00">stage_a</text>
</g>
<!-- 1 -->
<g id="node2" class="node">
<title>1</title>
<polygon fill="lightgrey" stroke="black" points="87.5,-52 16.5,-52 16.5,-16 87.5,-16 87.5,-52"/>
<text text-anchor="middle" x="52" y="-30.3" font-family="Times,serif" font-size="14.00">stage_b</text>
</g>
<!-- 0&#45;&gt;1 -->
<g id="edge1" class="edge">
<title>0&#45;&gt;1</title>
<path fill="none" stroke="black" d="M52,-140.9C52,-120.63 52,-86.6 52,-62.59"/>
<polygon fill="black" stroke="black" points="55.5,-62.35 52,-52.35 48.5,-62.35 55.5,-62.35"/>
<text text-anchor="middle" x="353.5" y="-92.8" font-family="Times,serif" font-size="14.00">(1) aind_behavior_vr_foraging_curricula.template.curriculum.st_s_stage_a_s_stage_b</text>
</g>
<!-- 0_gv1 -->
<g id="node3" class="node">
<title>0_gv1</title>
<polygon fill="#ffea00" stroke="black" points="1105,-177 661,-177 661,-141 1105,-141 1105,-177"/>
<text text-anchor="middle" x="883" y="-155.9" font-family="Arial" font-size="12.00">aind_behavior_vr_foraging_curricula.template.stages.p_set_mode_from_metric1</text>
</g>
</g>
</svg>
