<?xml version="1.0" encoding="UTF-8"?>
<svg id="Layer_1" xmlns="http://www.w3.org/2000/svg" version="1.1" viewBox="0 0 270 270">
  <!-- Generator: Adobe Illustrator 29.6.0, SVG Export Plug-In . SVG Version: 2.1.1 Build 207)  -->
  <defs>
    <style>
      .st0 {
        fill: #358dcc;
      }

      .st1 {
        font-family: Consolas-Bold, Consolas;
        font-size: 140px;
        font-weight: 700;
      }

      .st1, .st2, .st3 {
        fill: #fff;
      }

      .st3 {
        fill-rule: evenodd;
      }

      .st4 {
        fill: none;
      }

      .st4, .st5 {
        stroke: #fff;
        stroke-miterlimit: 10;
        stroke-width: 6px;
      }
    </style>
  </defs>
  <rect class="st0" width="270" height="270" rx="22.67" ry="22.67"/>
  <text class="st1" transform="translate(4 231)"><tspan x="0" y="0">&gt;_</tspan></text>
  <path class="st3" d="M207.49,9.68c28.87,0,52.27,10.96,52.27,24.46s-23.41,24.46-52.27,24.46-52.27-10.96-52.27-24.46c0-13.5,23.41-24.46,52.27-24.46h0ZM155.23,91.51v18.78c9.3,33.03,101.18,26.65,104.55-1.69v-18.76c-4.59,31.11-97.2,33.35-104.55,1.67h0ZM154.97,42.62v18.34c9.3,32.26,101.69,27.9,105.07.23v-18.33c-4.6,30.39-97.72,30.7-105.07-.24h0ZM154.97,66.32v18.78c9.3,33.03,101.69,28.57,105.07.23v-18.76c-4.6,31.11-97.72,31.43-105.07-.25h0Z"/>
  <circle class="st2" cx="61" cy="64" r="37"/>
  <line class="st5" x1="68" y1="73" x2="218.5" y2="224.5"/>
  <line class="st4" x1="218.5" y1="224.5" x2="252" y2="224.5"/>
  <line class="st4" x1="217.94" y1="256.81" x2="217.94" y2="223.31"/>
</svg>